<mxfile host="app.diagrams.net" modified="2022-07-14T03:35:08.408Z" agent="5.0 (Windows NT 10.0; Win64; x64) AppleWebKit/537.36 (KHTML, like Gecko) Chrome/103.0.0.0 Safari/537.36" etag="QdqpvL8_hv-Sbgokiq4s" version="20.1.1" type="github">
  <diagram id="TWHKBefvN0R1XHETb57V" name="Page-1">
    <mxGraphModel dx="1420" dy="802" grid="1" gridSize="10" guides="1" tooltips="1" connect="1" arrows="1" fold="1" page="1" pageScale="1" pageWidth="827" pageHeight="1169" math="0" shadow="0">
      <root>
        <mxCell id="0" />
        <mxCell id="1" parent="0" />
        <mxCell id="bap-exABjrLOmZxqaHPS-1" value="&lt;b&gt;集群现有资源：974c ， 5.2T&lt;/b&gt;" style="text;html=1;align=center;verticalAlign=middle;resizable=0;points=[];autosize=1;strokeColor=none;fillColor=none;" vertex="1" parent="1">
          <mxGeometry x="10" y="290" width="180" height="30" as="geometry" />
        </mxCell>
        <mxCell id="bap-exABjrLOmZxqaHPS-2" value="" style="shape=image;verticalLabelPosition=bottom;labelBackgroundColor=default;verticalAlign=top;aspect=fixed;imageAspect=0;image=data:image/png,iVBORw0KGgoAAAANSUhEUgAAAqoAAAC1CAYAAACXmt0NAAAgAElEQVR4nO29UWzkSJrf+U+JUgVLWdUkrAKUwNRDPtTiVPYYloAdoGRgHmRgDqjG7gBVu9fj1ix6bLVvz+4+b6+7sDPeLi/m1tWLOWw13Ift8niBljHTs+qdHk81sHNoPQxwepgHFTADSEA3XIntgk3gNDgKqLolq5USQ0oq0w9MUkwmmUlmkpmR5PcDBCrJICM+Mvjxiy++iCi1Wq0WAGj7GgiCIIhoqlerqV6P9C5BEERvJP+PtJUwQRBEXsjKqCS9SxAEEY62r2Fq3IUgCIIgCIIgiDDIUCUIgiAIgiCEhAxVgiAIgiAIQkjIUCUIgiAIgiCEhAxVgiAIgiAIQkjIUCUIgiAIgiCEROqfJB7Ly8sAgN3d3VTSDZp/L6LyXF5e9o75/+937d3d3a5j/nP7lcmfZxLC8u2XB0EQhKiQ/u6dB0EUmdQM1V6EvZS9XtReCinqeFwDOWq//3hQ2QWVoP94P8XWT5Y4ZQ8rU1jZwn73ypuUIEFMDlE6oN+7L8p7Tvqb9DdBDMLAhmo/xeGyu7sb+TKOm6jyLC8vdymWoEKMUjyTgKusJ1kGgigiUXqpl8GT1/ec9PfkykAQSRjao9rLCE3aJdKLfkZuUiO4X+s+ShEk6bbx5zNo2qSehjTvOUEQk0OYTuvXDd7PC5uka7yXriL9He8c0t8E0c1Iuv6BTsUySLd/VvRTDP1arXHjmOKelzTuaZCuIzcdtcoJojjE8bb289b6u8/7XWsUkP4m/U3kn1QM1V7xQWFEtfLTeOGGVRCDlIcUBUEQWRM0TkQIpXLLklYZSH8TBBEkVY9qVCsvqFj9pK1sR6F0knQfZd2VQ11HBEFkSVSXdjDuMw3dS/qb9DdBBBnaUA0qqX5TfvjPidqXlbJKo5skqSJJ2nU06PWTdh0RBEHEIUqHBXVN1t3QpL8JopikNpiq376o46PuvooKsI9Dv4FiachC3VAEQUTh77Vyf4cdy2KmlbBxBm63/6gMK9LfBFE8MhtMJWqLcJhZCbKWKamSG0YpihDfRhBEugQNWXdfv2NZXystSH87kP4mikTqhmpWsT/9RjmGKc5++SedaiUqfVBZRx0LK0NUXv3O7XdNgiDySdLBqnGOJd0fpxzBtKS/+0P6myC6KbVarRYAaPsaqler4y5PT6gVmQ50HwkiOVnoyEnQu2lBeicd6D4SRULb10Y3j2oa0IuZDnQfCYIYNaR30oHuI1E0psZdAIIgCIIgCIIIgwxVgiAIgiAIQkjIUCUIgiAIgiCEhAxVgiAIgiAIQkjIUCUIgiAIgiCEhAxVgiAIgiAIQkjIUCUIgiAIgiCEhAxVgiAIgiAIQkjIUCUIgiAIgiCEhAxVgiAIgiAIQkjIUCUIgiAIgiCEhAxVgiAIgiAIQkjIUCUIgiAIgiCEhAxVgiAIgiAIQkjIUCUIgiAIgiCEhAxVgiAIgiAIQkjIUCUIgiAIgiCEhAxVgiAIgiAIQkjIUCUIgiAIgiCEhAxVgiAIgiAIQkjIUCUIgiAIgiCEhAxVgiAIgiAIQkjIUCUIgiAIgiCEhAxVgiAIgiAIQkgKa6g+evRo3EUgCIIoFKR3CYJISmENVU3TEp/DwTMoSTd7n+2NJJ9xQjLmgyLISKTHIHp3VBShLpOM+aAIMvqRxl2AcVGtVnseP+AaHj7ZgmZo0OoadFPD+tJrWFtcA7fPDdYHe/dhWCZWqzdx8+rNrItNEAQxsfTTuwBg2iZqz2rYfbqL2tM9rFRu4JZP7zKJ4cHeO7hZvYVFZTHrIhMEMWZKrVarBQDavobq1f5KJC88evQIN27ciD5+8Ai7T3dQKVdRvVRBpVwFk1ho2p39bWzv72D711tY/dIq7n31PhjC0xJEkaiZNWxpH2Nnfwd6XcfW/7INRVLGXayByEJHkt7t5O1f3cW2to3F+euoqotYnF/E8pXlLt1be1bDe7v3oTIVry2/SQYrQeQUbV8rrke1HwpTcHtxLZbBuXJ1FStXV3EXd7G9vw2T61BYpePc7f0tVC5VUVWqfa+599kelr681DONxjVwzsEkBlmSwSQ2lAHAwcFtDsM2HM+FjVDlb9pmKoZGHBn9Zdve3wabacsKBoUpqJaz/8Af8ANYtgWTmzAsHQDD6tXVjjQ1s4aNTx+gqlZRVRZRvVTForKYSMZJpZeM7/zqbew+3cVqdRX3V9+DLMngNocJEwA84+P2xy+iqlSxeGUR1XIV1SuLWCyT4VFEtrVtvH9zEypTe6ZbnF/Eg69tYEffwb2du1it3sT64vpQeRf9fc0LJOM5H2sf42b15sQ7zsijGsE/+clKLIUZl3s7d6HXdWh1DTIYFuev473V9zvScHC886t7AGQwCWCSAr2u496Ne95xADC5idd+vo7FK4uoPa2B247BuvnbD71rMTCYtom1rTXAF6qgMAUbNzc78jW5iVs/uwlZUqFIDExiqJQruLvi5Msk54om17H2szVYNgcHB5MUXFeu472vveflCTjG7IO9B1AkBpUpMGwOlal4+drLXfJu1jZRe7oHvW7A5AeAxPDwtx92hFfoXMfG7gNwu30PbAsKU53ySWjnyqCZGta2breNdwYmyVhUFnH/q+915KtxDXe373h3SpYAham499X7nenMGu5s30FVqYK386yqi1hbXOuUw+bY1Xeg1XVohga9rqFSrnTle8AP8PjpY6iyCoUpUJkaafS7z5q377UiKQMrG9M2UTNrsCyrff84KpeqWJrvVHRaXcOe/giMKV6joFpewALr1AscHDrXAft8n18Wr9HDdais0rd8BtdRMzTn/TBrODjU8d7XNjrk5eDQTA0mN2E1DJg2BwNws3proHsyCORRHZ6s9G7NrGFpfmniP8hEfGpmLZbjp2gc8ANs1jbxsLaJF6/dxPqX16EwFc4X2rlXDz57B1VlEYvq4kgcPsOg7WtkqEaRtqHqx+AGDuoHWJzv9Bpxm2Nb+wSPaxqqi1XIkgxFYlgJePDiwsFh1B0voAuTEMt46Httm8OyHcOnErgetzk+0T7xjE1uc8dDfe22l2Z3bxfVL1fxaP+RYxjLFShMQaU8bNk4uG3BsgFuO567SuBF5LZj9PhJJ+9Odvd2sby07P3WTA2bjzdgcgMGN2HaBpbmV3Dvq/c6ztvWtnHv0V1AYpDhGNHLlSW8+Zt3O9Lt7O/gnb13oLQNc71+gKXKDdy9EUh3sINtbRu80fZkzjBcn1/GzWpnTHXNrOGTJ5+AN7hnbC5dWXIMc1/fy87+Djb2HgAAzCcGlGsqVq6uYv3Lw3m0emFwAw923/EaZWzGaUyt+bxoTGKZfrTIUB2efnr34ycfYuXqamSYVVyYBNx7dA+1pzXng3yliuvqIpYWViLrSD8v1fbBNmpPawDg1cPb125jgS10pKvVa9DrOrhltnupLLxYfbEr3Tt770AzauA2ADg66+7K3a6erI3aBkxuQmHMcyasDuglc2Xk4DC5Dr3u9BQtV1a6Gs13fvE69LreWebVB11ybNQ2PD2lygoUVgntjXt08AiGpXv3BDbH2pfXu+R4fftV6HWnkfvYfAxum9i69QmUju8Mxzu/uo9PnmyhUq5g8coirs8v4+VrLxfao7qlfYwHew9w89ot3L52O/I92qxtOuNvzBpMbmChXMHmzYehaceN0IaqaZqh+xVF6ZnGMAwAgKqGG5ju+eM0VAkiDbjteDZ527vIJMdLO+xHfhIxbAMbexte70MWkKE6PP30rttASgutrrU/yBo0o4a16+tYWuj8wN/9xR3sHOxCBgAJqJarWP+H61haWIHXt2EDD588BLdNqKwCixvg4Fi9erOrgbtZ20TNqEGZOe/ZuVm91ZWu9mwXVoMDYMAMIEN2PISB93dnfxt6XYdpc3DbgGVzrC2uo6p01pv1rXUc1DWn50epQjM13F+939VQX99ag8xU6HUdFaZAacf5Br91mql1zXRTDRmrsaVtQTc1GLYB0zJhcAP3Vu8HHBiOYWnZ3LknkMHazovg9TSzBoCBMafhKTO5p1Gu1TVoT2uomRpeW3rNux4DAwfHx7VNKOUKKrIKhS2gUq6EXu+AHzihb9yE0e59GnSANAfH1pOPwW144XQKU7rCU7S6hge7D6DKTj1hkoKqUu3Kl4OjZtacckuObLIke40G973R6tpAHlLN1DrqE5MY9LqOO9uvY/HKIrRDHZybUJmC97620XGuyfWuXrc0ET5G9f67nV2xd9640/M4AKy/so6NH2507Q+eKzJBT1weIRmHh0ls7N02wjxHG3ikb4+7FIRgVMtV5x25er4vaAjf+cpdWLaFvd09LC0vAmBQmdqVzt8j1ItgaFAUi/Px3puoHrVg+d752juwuAXTNtuNV8cD60+3u7eLB1/r/j6GETSEowj2zESV77WleN/gasKBce4zdu/Szq92sLy07DPeDmA8rcHkOgzuOLc2f/uhZ6y63uX1rVfBmAJVYlCYisqlClYqK85F28ahVtfw+pbTla6yChTGwG3g/uq5LeI6EHafPW43Tng7DE6FaXc612QJWLm64jRAuFNep1FievkCgG7quP/L+14Y38ETHUtLy7j71XsdIViDfg+Cz5q3w/XurtyDYemQZxiYpIIx1vFcDW7g1Z+v4f+5tTNQvnER2qN6/937XQZmlEfVTWsYhudN7XV+v5b9qz9fw1sr98ijShATwCgUJnlUh2fUHlWCSBuDG+3BtQYADvVSZewOg3ExKr0r7IT//YxU93dwn6qqofvD9vXiva9tjM1I3d3bHUu+o4RkzAdFkJEoBkWoyyTj8Kjt0IrlyjKWKytjMVKL8Bz9TEzX/5037sA0zVBj02/UJjFGRUWIrtSMIRnzQRFkJEbHg70HWFtcG0ucdRHqMsmYD4ogox9hPap33rjT8ecarcEBVFGDrvqh6zoODg4AIHKr7+tj2W5tbY01/1Fsd/d2hShHllt6jqPbypKM16qvg5hstp48hGVbY8m7CF4qkjEfiCTjwgg8ykIaqn7js1+X/TDeVMZYz60zDHT026WvLI01/1Fsl5eWhShHllt6jqPbsiGmcSMIoBheKpIxH4gio8pUbMQcnDcMwg6muvvdux0xqlExq/50QUO117F+Qf01swa1rI5lMmFhRlJnCMmYD0SSkeZRFR+RpwUUqS5nBcmYD0SScRR6N7ZHdWNjo+N//+8scLv73b+g0Zo1r/98HRYfTxeUKBUwS0jGfFAEGYliUIS6TDLmgyLI6CeWobqxsYH19fWO/9fX1zM1VhVF6YhRdfcBnXOi9pofdZLmTvUjUvxJVpCM+aAIMhKj47Wl1yFLcv+EGVCEukwy5oMiyOhH6FH/YTGnYdNOJTl/EihCa4lkzAeiyGjYBjZ+le3KVET23Lx2a2zzqIpSl7OEZMwHosjoLNNuZD5Fl9CG6jixwHH7Zy+OJW+ucbCqOMtgOiucuEu3yc7UMZITlSJLDIbNAduZqNtZbtCCZfOu5ff8BGVkEoMMZxk5dxUQ1l7D3rLPJwF38nCuDxs980gTJilQJdlbuYRJKhTZKZ/CVKiS0rHWdaVc6Yoj4jaHZmrQDzVodd3bOksGTib+56hKChbKjuyVSxVvucKKrHrLOFq24SwFyQ0YDQ7OubfEILdNGNwCb5gwbQ7LtsC5CdNdtQUcKqtggTlLxSqy4q0OI4Ph0f42EB3+SBA9ESnuLytIxnwgiowWt0ayMlUsQ9XfzR8MAcgranst5HEgkpEK+FaLsQFgsOnAggRl5K5ha6dz/bThtgndNgGuQ4t5DpMY1H0VSlnBQf18+b484X+Ohm3CME3UMjS8Da7D4OHv5Tjm3iTygwgf/qwhGfNBEWT0E3swlRuX6v+dZ9auvTy2vLmW/yUEiyCj+cSEznXUntVyaaQCxXiORDEoQtwfyZgPiiCjHyHnUS06onlUs4BkzAdFkJEIxzRNb85r93//HNj+fXEXZnmw94BiVDOEZMwHRZDRT6LpqfzTUmU9PVWRKYKXimTMByLJ+GL15riLUBjufvdux+/glIGmaXbsizuwlVamyhaSMR+IJKMwK1P5p6RyyXp6qiJTBC8VyZgPRJKxqlwfdxFyj2maXUZqWJphVgwcF0XwUpGM+UAUGUe1MhV1/UcwzphCkbxUWUEy5oMiyEicE7ZCYK80k2KkAmJ5qbKCZMwHRZDRD01PFcHmk82x5S2SlyorSMZ8UAQZiXPiGKkuYUaqZfXv1tcMDnPGOL8Ok6GWO+uZwTnMeue1hk2nXq1Ce2YAkgzYVvT1uNWeAWW05UuUri1DMJ3riRt7+eKk4/BkSHK96rXunpWJkDdBuvO6CiiSOOXLisTTUwHomqqKSBfR5lHNApIxH6QmY4MBM+SdFZ1eHlLXk+oaq6ZpdqU3TROapqFarYZv2SpefedjsCsL4E8PwK4sgGEPi0sc5r4B5aoKc98AZ4vQ9uRU0z3+uQn1+hJwqAGXqpHp9CcA5Grm5eO6hcpVFYbOweVF7P2Sg11ZAJ6aYBUFKjTc+E3gQDsAu6rA0HSYchW1X8pQriow982ufME5wJiT72ed+Vag4cYNGeaBgUq1Al3TYUgVPNrhHekUu4bqktlbjooCZtd6y2toYGqP+1wDoJ7f56p0gJurCzD3TVQXq7D2DRxIVTzcqoFVKuC6DlapoPK0hvvfWYf2REP1WhXaEw2azfDg4Q5wpQKua8CVCpi9i8VecvQpn7Yng1UUcL37PmdZT7W9diNEcp4z4xpWV1XgKbC8uASucxgzVWz8zQ4qV6vQ9zWwSgXLZY43X1pFrfYYlWoFtcc1aDbDw+0aoLbv35UKVOkxln4T0LUDyBVA1wzg0jJquzivf1cqqDIdt29WsVBXsLq0mqHWAUqtVqsFANq+hurV7INiReHRo0e4cSN6dvCVnyyPbfQpERNLAbdVsEtxZzbNKY32dmaspRgIblXA918Gu7oBJvGhjNXF+SVsfi27npAsdGS/awaXrwbEcBDc/e7dju59/28guvt/a2sLq6urYIyBc9613XyyiXd2HkQepy1to7YqVCiqAgYZlfICGGSYtuEssmLpYy/fqLfMllG5sgBe54AEGIcmuGSlnA+w9htrePPGm5npGm1fiz+YKsn+QtDon2RQihD3N4yM3FiCub8O82ANsJnjjROQkTzHBgAw8PoiuFXJPr8Awz3HFfCDW2BXPwSTAIAN9V5N8gpfYQSNVHdAq+h6t5fXVVVVMOa8r2Fb7ansLdzQK10WW67zseQ7yq2pmUKUI4utAQOaoeHR7g6297extf8JdvQd6JYuRPlG/Ry5ZEEzNOgN3THUJSuT8jzczz5MsmfXf1h3f1HotzIVN1cAAOxK+kuH5b27GBhQxgaDqd0B5Mdgyg4Yc5+Pa+BwobyKo3mODAADK+swf70GLGyCyaMbCDiojOb+GphkQPlSp5LjvAoGncIAJhw3BODOG3dCQwCi+PgXDLgqg2H0U1Qp1ckZ+DUoJGM+EEVGbjNgBD3PPQ3VoiyXGsbatZdxf++d8IMNBpQ1wFyE+fmbYJUtsEvpeXMotrFNA47h2fYawmZQqu9FJG63Io2qY8CO0Fjj+ipQ1rpCELJ8jtyqgD9bhbLwibePLXwMvr8O9hsR9TaLcgwiY4OBlXfByuENQfPX61CqD1IoHZEVwUFVwd+KonTsS2KsjgtTM4UxALKCZMwHQsk4gh7N2KP+i2ishtJoe7AkC5jfBZQa+LNVgKvJvKs94grzbqQCfWS0FMdjXa453rW2Edq/tjKA6Y637soOmLqXUmkjcF9QZoCbK+D6LafBouyByXp2z9FSwPdvQal2eiOZZAFXtmHu34Jy9eNs8g6QSEa3wdH2AIdejxngTAc3lrJ/foLj7+YXzWkQNDrDjNCBDNMrW8AYvKmAOF6qLCEZ80ERZPQTe9Q/0Nn9L4KyHCX8sALGDHhGUxsmWWALn4BztW24hHQ/N5wYQtgqmOIas47L3Dy47XRj+7xxRfWoOl7CG4BVBVMfhd7vfjAJYNVNmM9Wwfer0QZbg4HbqhPjCoBJRm8vbIOBm8sA09shB+flYmUNrKyB2wDq1wFzCZAMcM0E+42Un2MDMPdfj/Qss7IGgDv19VJ06EpaxKmrzrvj3rP+90NRtmHuryc2VFeU24nSTwJBPZt3vcvKu0534hgQykuVESRjPhBKRlvNPItE86j6leQojNbg+tBhLfS4a0j3ukbfcuyvtQ3MaAXqGVXe/HocvL4EXr8OWAvAJQ2svNd5DYlBmf8E5rMXwetLUCqOUTWskcoPq+DmCpSFhwDa8SNpx242AM7bg3ckODFlCUZtdxmphxXwZzfBlF2whe2hi6fMb4PXqzD1m1Dmt/w5g5vL4MYNYMZ0ygwLYAdgkjuJsiOD9/wkAzhcBC7VoEiPEVUPmARAeezlw64qXuws5+kYjubBGpSrUeEP7ZzLuidD1vSsqw0G8+AmABnMF6LQFwlgl/bAn66CXYlXF0x9FXpjMX4ePqK8lKJ4L4nRIMyHP0NIxnwgjowy+MFgOjKJ3k1kqI7SoxpcKzosKD8sjWEY2Phh98CvfhNVBzG42R688xrYle22IRqD9ohVbjPwetWJxVvoYaBIgLLwCXj9OszP34Ry9QH4gTmQscoPq04YggQwZRvnHizeNiyrAHjf6Zz4YQXgVXC+ANiOMap8KXBPbQb+7KZj6NkKeDuUQam66VxDiTmDfDpk5mDWhk9G5tyHLz1MLHMvWFkDYxqAzpeaKY/BPIOy40jnlh24ka9g88kHzZn7vK1QGGAvwPz8ZacuDdql3UBHTGpvGNDIfnBZlEeVP10BN2448paTTx/G5ncdD7Ubp9yrDPoqmASsfiWecT5JBmhQ505S2QeBzQCO7hi9V1UoL1VGkIz5QBwZLaxcy17vxjJUxzF/X3CpvrCl+8LSrL+y7u2Ls9xfFJu1TZi/Xm9PnZM8ZopJSOQZZOXHYOyxM+q5mnxgFjdWHMN43j8a3ru6mwrcXAV/xpxwA3UvMGDJScvNm4Ckg5VrgLTX9joGPhyRhmXA2APA5rvvA1tY6Pw9wD2OxRBrrzHJcgbNDYhfkbCyBrAPwc0l8M9XkxusDThhCknksVnmo+dDjVRjEbAVX6NlwGvH8ApzY6XdMNsFsDJUfn5EMAij5lAVoWx5RIwPf7aQjPlAFBmZBNz4cnrXi9JtiWJUR4VpmgMbmKqqphLYzxsAW9hsz+84IiSn29b8HFCqbSOj4Xhm3eMAdzySctsYdQeoMA1KOcxLeA5jBtjCQ3CuOvNuastgC1tg6IwFdUIG0iPMGy1OizA7gjIyyQKb3wFXdoD6cre3sMGccApbAbgKblfa8a/tkAQpoZdJYuBG1akv/RZFiIqv7nOO+YRDueaTo8GchlLEYKlESOcNrPD8AcCK8I4PDhmC42PlS6vY1oYP/RmEIuqkPEIyTia99G6iUf9BslLmrlHp79oPM1z9y/VFpZlEvApoAdx2jEpAPk8gGc7gHwCugZnEI8mYAcZ2nHhad6L1EZO3lyyMKBmdWNZdAIrTPe/FxC56MbFM4mDsMcAOMMzzceZXvQ3wtpfedrzpjpfcS+XEklr+NbKt9mpRnTHg5q/XgYYCpz6245LtTXR016bauIsIYWg30M7DCji2tU+wvvjyULmRkTpeFtVFbGvpz00dhyLrpDxBMo4SDs5jhkX2oJ/ejd31P67BBr268eOEB0Sh6zoOnh1gYX4hdMtmAP6MA/MM3ORgyui25mcmlC8r4HWAKRbAtrrSOV30HEzB4PnVRyuXf8sNDqayseU/0ufYNz3AFAbYNSgLWudxafhysPImuL0KGCbYFTj5zXeWS1nYBje3wMrt+qWogMmBQDq2sAWYBtj8+XPk9Wyfo/nrRSfOu34AdoWBP4Xvvjn1H2WGmhY/ZCbY8BZpeVKX4CpUIpYxbbSnsq8BPVry6KUKQjLmA5Fk3HyygdeWXouVdlC9OwZ10B//SP5gl707oCpOmn54S/WFbFWmwpSGbykMArua76mpAKdF6Bjc+UWk56jM74BL54ZxJJLzxyQLPEQ7BPeP4jkyZoIfrIEpD8CNJQA1eIMEfXA77OxwgjOYuEahaB5VkcoyCmhlqmwhGfOBKDImXZlqUL07FffiYZZwll3/bpe+aZpdU1CF/e5luIZRqVS8dGHbW9dedrxcwMi33OBjyXeUW1MzhShHllt6jilt5y2A6eD1NSfetk/6QVlfXw/VdeNClHIUBVMb3Wp244JkzAdCyTjkylRx9G5Pj2qUm9b/OytjtVf8qdvFn/sY1RxDMuaDUcmoKNvOjBhdM1qkD42sHyO0MlWmkIz5II8y9tK7PQ3VcSrq4FrR7j7/jABRaVwm1XAVKf4kK0jGfDAyGSX0mY9VduYQThERjNUoL8O4y5UVtDJVtpCM+UAoGVNemWroCf9HTZxppnp18w+01nSbD3+hgjOMdnqqNsJUwAwhGfOBODJaWKpUY6WMY+SJEAKQV2NUVMSpy9lBMuYDcWSMvzLVMHo3VowqAC/gNfiXV/R69l2MUQgVf5IRJGM+EEVGJgGrS/HTh634FDxGhuLoYTMAk8YzyFKUupwlJGM+EEfG+CtTAYPr3cTTU/lHauVZkbOFjbF1QYnTWsoOkjEfFEHGcTLK+auLThHqMsmYD0SRMe2VqaIYuGO7CMbquBAq/iQjSMZ8MOkyhrXo/f+PU7+Nc/7qcUErU2ULyZgPJl3GpHo3dtc/MTomuQLGhWTMB+LI6KxMNQiuUnSnSfHvI0bLoroIjGGlPECkupwdJGM+EEfGwVemSqJ3E8+jKurE2GnDZsalLkWKP8kOkjEfiCIjtxk0M/7KVISYeCtTjQFR6nKWkIz5QCQZN59kP1Ypdte/3yjNs4HqojIVesPAOMxVcVpL2UEy5gORZORDTjwNiDXJftQI2DzrX1qZKoqe2+IAACAASURBVFtIxnwgioxJV6aKop/epa7/CG5dexnj8qmK1FrKCpIxH+RBRldJBnuJRDAI3W4x/x+RDXmoy/0gGfOBUDIO6CBIondjj/rvBSnPdBGltZQlJGM+yIOMNDBUIGhlqkwhGfNBHmRMondjx6i622DgKyn39BGqtZQRJGM+EEdGGfzZi7FSitS9349+y1jnDVbeHVve4tTl7CAZ84FQMsZcmWoY3RXLUA2zekVYuSVLPvyFCj6moP48tJb6QTLmA3FkjL8yVRBR9di49a5pmqF/YceizpkkxKnL2UEy5gNxZIy/MlWQJHpM6CVUx4le18c27H/S50iLA8mYD0SRMcnKVMHFS9z/RTVYx8n9d+93/L7zxh2Yptmx390XTO/uT7KUNZsBAI5xKF9R6nKWkIz5QBwZ469MNYzejWWoFnH0Ka1MlS0kYz4YnYyuMox+J+WEVwzGSImmz0TRu3feuNPx+/679zv2ub+j9k8K9L7mA5JxdAyyMtUgeneg6amKAOcVQBpsItthEae1lB0kYz4YnYz9vWyDDMER1Uh1GWe5wgzNJN7RQaCVqbKFZMwHky5jUr1L01NFoa+DSRznnpzR0VkBecTfZDPJL1lcxJIxm3ozWiO1l6E6+MpUoiJCOML9d+97fwCgaZp3TFEUz3A1DCN0P4COWFXL6t2coJWpsoVkzAfiyDj4ylRJiG2oukrTP/dVnllb5YDX9T9aw9DUzMDqLMH8wxR50jKO1+AVatRiRiSXMatnEmjkuHXLjjgeWY7uNKN5jv3vSR5XpnJnVQnq3lFx5407HX/BeNVBME0T2r5j7IZttacy+IHzvPmz0W7NvYOx5DvKramZQpQjyy09x9FuN3YEWZkqGPwK5H/uweoVABoweOve/bgmPZ8HWkv9PEnB/HrlyX3bqOty33E/6Xo5xGkRZkdvGQP32Eb7bfQbiSywHQT3er6ySIEtGDCQgcyhVJmv7FkQVVe73680VqYSEb+O9evfLPF7Qf3eUVVVQ9NE7Q+ezxjz0oZtP/4FA9T2cwxW/4y37JoylnxHuVXmFfA6H3s5stzScxzdltus3fOcLRMx6t9VfGHxUUmnQEknxipoyIUZpQyAid5GYfh1B4s/URBu5Piv7Zal17XDzgsre1TljDIoOjG1oEEuMlH3oDfhzzHiGUnub+ZLlxZx7nMc+YJp3Loa9cyT37P+efr3m33S5AO/J3VUjgFFUXD3u3c7RvSngaqqUMpOfYzaoiwDsMDKznMd1ZY/5WBlNvJ8R7n16yQRypPFlp7j6LbcBsCy17/CG6qusgwjbJoUwzCw8cNuV3T6o0/9BgcQbgz4jcf4XszBDTj3+gGvqA1Aiso76jph/4fh5tPLmOv29o50tLjNfDU9aAD2KnOYsRj/pQyPNWaIrgeD5dOTDtnTJ/o5xvHwD507MGMOvISf6IzKexpFsLvf1aFJ9yeCVqbKFJIxHxRBRj8DTU81CgUaNELDCJsOZf2VdW9fdtOj+A2zOAaHmx4h3aTdRuzwI/oCZcrEUGER27B03cc6ZLQBSGZk2sExASgB+RnOPXHAuUEVvN9BueJ4ODuNs+7nOAblknFTNLyuBhtM7r4MaChwnmcF/NlqNnmMiXGHVSmKEjnqP+n+uLDybo9pATnYDANvDNbD0Y9JH0kdB5IxHwglY8yVqYZB2Omp/HPzhdEvhiqoIJMqzI1tBs5kMCmqdZ9UUbbT+++4zdu/A2UVpQJmSIeM3j3gcIyOYQ3WqDhbL/eY1+njWbYBePE5/bzGaX1YYxp+mcaNntO7rvoM1kHKE/scBcOsTEVEE6U3k+5PDocqV6BIVcCuwjQq0OuPYXIVysIOmKynbrAWTu/mFJJxlAy+MlUShJ2eqp8nNDj9SdI4Kl3XcfDMGR0YttWfMsB0jFRu8my2dQBgXfvNz8xs8xVga2pmyH73fjixvYNd3z1PaV8vy+fHcf78FHCTdeSbzXNkATnD0pmANM7nGPJcvfLEfa7cGywQJz0DsPKl8cx7TKRHVV0EkwD+bA2PP30NO7s3sfPpIh7vKzCMFVjWInRtHQefrwN2FdVL11PLm2YiyQck4yiJvzLVMMT2cURNjZKVpzVOyzytKVNEg13NZ8ydH6WqeIZGJ46xl5xRxERGEZ5fds+RATNR3qTslYaf6OcYge0Lg4lkAE+Z8NH2RBxWr9zDvV/2n2bMsiuwtHXoGnC9sgpW+QT6odb3vF6I46XKDpIxH4gi4yArUw1C4umpRCMYowrEM3IrlQoW5hcAIHILpT36VGmPchvRlhscTGEjz3eU245Ri5Hp4GzLDLA5mMJ9+/n58WD6rv3j2Wb6HBsMTHHCJDrl52BKv/s66ucY9lx5xHH3ubLEz1G9kn2sFJEtgzTtHusKoK9huaqDyx/CaPg96/GvKFTcX0aQjPmgCDL6mTg/hL+Lf9LWko5LESpgIhm9qZv8ZDOgIk2yf45hU1+Ntu4MJqPrVY16hmI/V0JMdrUKZOllKJVHYEwHn9EBcKioBIxXIMyrH16XO9OxGQZVqgLg4OCwLA4OK/R67TN856oA3HKcx5pX2HI7XTutLUO3z1dZc2Jxu683CPHe16AsoryP/e8xQN9PP2xGhiwxGJbu35tiSUazMtXEGarAuYGaynQoEaytmnj4ZDzTpBShtTSYjCzifzEZyXPsWChg9PdkcBldY7U9MwOAc+N1gOvZwK7G8PLiAEUhhEF7yocaCGjZFVj7t7zfMjhMABYYrl81oVzSAYlDt7fBA0ajur8IpXrdqZk2A7cUGNgCtwHOVcBWYNoM2qFrWJ6jXtkGYyYgWWBweuK4+SI4ZzCs87SyHAhPaDBodqVLDllaAGQTTNIBZoKVdVSwCiZzQNLBbQPcNmE09K5zw/VAe/yDxn3zHp+nU2UVDAp0uwaAg6Hi3Z8qW+m4BgeHwR+3/3PlCMs3jvEuQwaDBb+x4+iyqvRi+woMsJ29euNh+/4yONPTaaiwFXBbg942xuj7yVGRFwFrBbXHVVgAVIlDqW4CM3r7jWARzyw5m0828NrSa0NfpxelVqvVApzl66pXo0fNjjpG1SU4ur/Xb3df1Ll+Hj16hBs3bkTm+2HtQ9z/5XsDl5sgiDice5a8JV0HMFK4LQMHb+LxWzfTKlgX/XSkKNcUmX569/p3t2BwTKgLZfTIl3bAyiYYM9orBJmoyDfBPCPSea90bLUNE3efAtRfhFkPGNLgsGIYL7JkAjNGe9YTJ29+uAJFBhjjkBkAWDDYh+24dOZsbRXm01VYgSnIZLnmpGmce5WtARqs1ysmmPoYOrbAoAKwfB5p8Z0bg8OBmfb2cAW6r7EWhizpwIyJhXIFqmKByQeAZMC0NRhWMNY7uuEDAJgBdl/eHbL80Wj7mvgxqv2mmeoVj5reVCmjhVqE+YBkjAPr9KCRgUKMiwMNWJisRoN1uALrsHNf+JCydldDHxnjGKkAYNmKY+x657nlAXDoXkMB8Ga861npdIU81hVgrwJ54Q4g64DUNqLBoNjLUMscrGyBzZjgkgbd3gHgmmIMMlQorB3aYQOAAcM2wbtCR87POqfTeGPe9Sq+tAzc1qHbe+1fjudaRQUKq4LbOrjNYYGDN6JCSjrHBlTkCnRLh6mvwjJWQtJ3Y9kVwK5AswDtqQLA8erL4MClXSjlA7CyEz6jogJFavci2G0ZoMNo7Dll0Zdj5TkM9FkQkLwbNwDJmBdSkZG0ECECE2akDkRBZLQAwHJ0k2dEA9AP2yEDqABYhCyt+I4CgOwY4T5kyQRTd8CY4SxMI3EwKKjIy+0wEQXcYjDsA3Bo4HWlvWiFCliVrus5udz2GgX+8JRgvpC1djhJO+zCrsA6dIx664mTzpTM0DwGwQIDAo2fsOASoArAuXfqCPR3opWpRB35nzfIE5cPSMaEkMFKjJMJ9KgmhmTs4NzAi9Zhlq3AetodUtTtua4AWIqXr88ojfJiW7YCHC610wTwyZiWkSoysbv+/Vs/eTVeo1amclZLqYChAhMa9MPHqeedd+MGIBnzgkgyLlVHO4cskT7VKyoMfUwLN+TdgANIxrxQBBl9xPaoFg39KcPi9RsAVGf0p6lCe8oCbvAlVC7dRLWqAVINWkpGK3ni8gHJODqYZOHFJTJUJ51bywvY/WRMhip5G/MByTg6bGDlevesFWlDnW092Nld6XuH9EMG/dNFAIuoXLqJxaoGU6oN5WkV4cOfNSRjPogrozqjAl3z+aWMlOdRvUTmiPDhzxqSMR+IIqME3LiW/XeODNUU6TBa1Zuozhtgl0xw6OC2DsM6aE8O3ZvxeqlkqDMMTGJgkgpuW+35+tL1cojiiRsUZyJlBQwMkGQYXGuP0jxn0mWMQy8ZVVnFgrSEg6fX8fiJk0aVgErFhKIaYJIOEweZhM8QRGJE8VJlCcmYD4ogow8yVDNCNxh0owJ3dKFL5RJHZZ6DXTLAYIaffP38Xw7Fmey4wQAuw+Dtyag5YFgMsgSwGQ4mAZAAJgGyxL3/+8E5YNkMZh3efHpRPi9V5lDKHGoZYHJ73j6JA85kGnAnbHcmo+awGtwzzN2JnSExMACV685LxiQZQNvgs9X2RNuqI1+dtUdpcqgyOmSExB3ZJTijImfaMiNYpoh73EW7DJABm4G7k0z77ztn7dGdUfcHqMybUC4ZYMwE/4dOA0XP0os4ZoJGqjqjYoGt4OBpFY+fKAiaoIYNGPsKsK/AGTkKALdQvcJRUQww2XQmNIcJPcT4J4jMKMKHn2TMB0WQ0QcZqhHc+koVGzvhM9INg37IfFNkRJBo1CK6Jk/OamJjw3Imh9aeAkMv1ZmoRchgdNkrfhnF8FoaVtsIc8tzoAALzmhRVeZgDGCSMxk2Yz7jWnKNfMAd33lu+J//gm35/nfn2js/h82okCUGBtZuADAwKIC7kovtXrE9H16jPemJjXYaq23sA5hp5y1x57fk5BnkQNOxUHXmCTwwKqHGaRy0pwza0+6GnSo7DTvH+OfOtC/tBgTnMixfw21nr4qXrw2QOSEMw65MNRRF8FKRjPmgCDL6IEM1gqo6xni3IlTAgsloWKxtT/onwxaNQcq0hMefpl4QD8NiMPb7NOzabD/WEXd6GEJMPt5N3zkQm4LppNxCMo4OG3j0xMT6b2abzVS2lycG4mCMynpUkIz5oAgyEsWgCHWZZMwHosgoATufZx/aRoaqiIjSWsoSkjEfFEFGohgUoS6TjPmgCDL6IENVRERpLWUJyZgPiiAjUQyKUJdJxnxQBBl9kKEawYe/PGgPMhkDRWgtkYz5QBQZbWCpqo67FMSQVK+o4xs5IUpdzhKSMR8UQUYfZKhGoBtjWh0FKEZriWTMB6LIKAGr1xfGXQpiSG4tj/EZilKXs4RkzAeiyGgDK7+R/cpUZKiKSBFaSyRjPiiCjEQxKEJdJhnzgSgyjmhlqtwaqqZpdvxNFKK0lrKEZMwHRZCRiA3pXcEhGfNBEWT0kct5VE3TxP1373u/77xxB6ZpQlFEnLsyBFFaS1lCMuaDIshIxCIVvTuKL1LUggJuXR7XggN+/OMj0ixLEd5XkjF35NKjev/d+7jzxh3vz68843LrK9XxKasitJZIxnwgiow2sKdNmAcvZ6Shd+UMytVFlF536/K4jVTAKYP7lybDvK92xP/90g6TZhCSyNirDOMaTB0HUfTuiBDhlRQSWpkqIa4XIq43YhJlTArJODokWpmKGBJR6nKWDCOjFPF/v7TDpBmEJDL2KoP7PeuXNmjQhqULM3rjpIvKc77a+c0dV/kAyCNoXubOUPXHRQW7nPzdULuf7qJ6LbpCc8ME6uPx0HBdA6vkW2mSjCFEKZyolv0oFKK/TCHl65AxY4XYL93iCIL6iXDS0rvGU9K7WUIy5gORZDQMHUC2s3WUWq1WCwC0fQ3Vq2IIThAEIRpZ6EjSuwRBENFo+1o+Y1Qnnb3P9sZdhMwhGfNBEWQkikER6jLJmA+KIKMf8qgSBEHEgDyqBEEQo4U8qoJShNYSyZgPiiAjUQyKUJdJxnxQBBn9kKEqIEtf7j1yeWNjI5N8o667sbHh/Q3DyckJbNsZ/TIOGXvJkZaMftKSsVe6UcsUZBQy9jo+ChmJYhCsy359BUyu3vVDepf0bpJ0wujdVpv//v/+9xYhBruf7vY8/v7776ee5/vvvx963eC+QfO2LKv1d3/3d63nz5+3zs7ORi5jLznSkjFIWjJGpRuHTEGyltE9lmXdjEsWOpL0rjj463JQX7Vak6l3g5DeJb0bN51Iepc8qgLSr7XkJ9iicX+3Wi188MEHMAwDP/rRj/DBBx/g9PQ08hrr6+uDF7gPnHNYloVSqQRZljE1NZWKjP7/+7XuksiX1r1IS8ZByPJ5+slaxqzrJiEGrVYLR0dHMAwDpmni8PAwUl9lhVuXw/RVkDR00jjqNundTkjvRp8jkt4lQ1VA0oo/sW0bP/vZz/D1r38dv/Vbv4Wf/OQnME0TlmV1pBuVkTo3N4eZmRkA6cbYuC/V+vr6UIom7a6MIsQRZS2jSMqSyJYLFy6AMYapqSnYto2jo6NQfZUVe5/tReqrpMTRSeOo26R380HR9G7uJvzPA0laS1GUSiW0Wi288sorAByPhW3bKJVK4Jzj9PQUc3NzkKT4VSCpMuml9NOQ0SXpSxXWWvTvS6s1maaMg+I+s6wUjwgyEpNPqVSCJEmQJAmyLKPVanl6alB9lZTFa4upGKlAuu/bKOM3k0B6NxrSu+lCHlUByaK1VCqVcHZ2hkuXLmF2dhbNZhP1eh2c857nua3lpErk7OwMJycnAIDZ2dkupb/32R5arRbOzs7QbDaTC5QyWSgUEVr2aXg8eiGCjET+cLvdk+qrQTk7O8Onjz8FEK6v/OlGoa8G1bv9EO19Jb07GCLIOErIUBWQYGspzco+NTWFubk5XLx4EYDj9XQNyijcly4J09PTkGUZpVIJp6enHfFmzWYT16rXYJomvvjiCzx//hw/+tGPOkbYZsUoY2+yfI6iUAQZifExiL4ahOnpafyjf/CPOvSVW5ddI3l2dtbTV7Ozs5nrq0H0bj/G9b6S3k2XIsjohwxVAUmztdRy1nPo4sKFC57ytyyr50CrQZmdnQVjDK1WC5ZlwbZt2LaNw8NDPP7bxwAcz4m7rdfraDQaA+fXj1EHiI+z1TsqxVW0lj2RLcPqq2H4r3/7Xzv0ValU8vSVq5dGpa/y5IkjvZs+RdO7FKMqIMHWUrALwf/S9+pemJ6exvPnz8EYA2Os67jbpWZZFjjnnhKOm3cQ27a7YsjcfC3LwtHREQDHQ/H3/6e/742obTab+PrXv46/+Zu/QbPZRKPRiC1jXPyjVIOyJJExCWk9xyiSXG9UsVJpy9iLUclIjIaTkxNYlhVbX0mSFDoiPy5BfeWvy5Zl4fbt2/jrv/5rlEolNJtNfPOb34zUV2kzqTopCOld0rtpQEuoCsjeZ3upBEsfHx973WSyLIcqfwA4OjrC6ekpZmdnMTc3N1Refs9HWB6A4x352//2tx0yut1rZ2dnmJubw+zs7EDlEIm0nqPIFEFGF1pCNVvGra/8dTmor4I6bVL1VRHeV5IxX2j7GhmqeeT4+Binp6dd3WhRyt9Vus1mE+VyOfHIWlfpu/FkYee78yS6I2rDcD8OvT5SBDEuyFDNBtJXBEFEoe1rFKMqIsPEnxwdHXUo4XK57I1gdbvMgkxNTWF2dhatVitx7FccpQ84MV3lctlT+mEyuh+qsBCESaQIcURFkJHIDpH0lb8uB/VVGJOor4rwvpKM+YM8qjnCnbdUkiSUy+UOBdqvW63ZbOLw8BClUgmXL1+OlV9cIzUOZ2dnqNfrAIBLly4NFXtGEFlAHtV0IX1FEEQ/yKMqKIO2ltzpUmZnZ7ta+RcvXuwY2BT0VExNTWF6etqb27Qfp6enODk58brGkip9v4zNZhPHx8doNpu4cOFCbpR+EVq9RZCRyAbR9FXcujzJ+qoI7yvJmD/Io5ojDg8PYdt2ZHB/q9VCvV73PhBBTwXnHJzzWKuy+K8V9Ii4I3MbjQZarRZKpVLoSN5Wq4WTkxNwztFqtYYaHEEQWUMe1XQhfUUQRD/Ioyoog7aWXMUb5WEolUqYmpry0lmW1TF59tTUFCRJwvT0dKy85ubmMD09Ddu2cXx8DABoNBo4PDzsGBzhzkvoTk/lymjbtqf0GWO5U/pFaPUWQUYiG0TTV5//t88BhOsrALnQV0V4X0nG/EEe1RxxcnKC4+NjTE1NoVwuhyrwo6MjNJtNTE9Pe/FaUWnj4J+m5cKFC2g0Gmg2m5idnfXmSXVj0YBur4i7HOEkdZ8RxYQ8qulC+oogiH6QR3WCaTabODs765jSZXZ2FpIkodlsegrez9nZGWzbRqlUwsWLF720wyxJODU1hYsXL2JqagonJydoNpuQZRlzc3OeMmeMQZZlAOiahmZqaoqUPkHkHNJXBEEMCq1MNWGcnZ3h6OjI6y7zx1OVSiXIsuwd/+KLL8AY8xS8ZVmeYgbgrVcdZzBCLyRJgizLOD4+7rmqzMnJiTf4YZgRtwRBTAakrwiCGBZ6+yYI1/NwdnbmxW258VTuCinuQAE3nduF5XLhwgVv4EKa8//Nzs5ienq6Z5dcqVTyBisQBJFvSF8RBJEGZKhOEG48lX9JP3fkqzvxtTtg4PLly95+N8aLMdYxOtYdTZuWt6CX0nc9ITMzMwPHlxEEMTmQviIIIg3IUJ0Q3Hit6elprysMcOKppqamvGUIAXijUaO6tQBHEZ+ennqrvPhpNptotVqpKWjXU1IqlSZmTWyCIAaH9BVBEGlBhuoE4K4p7XoSgl1RrjINU/5hnJ6eetOzyLLcpeBPT09jz0/YD9eD0mq1IMsyKX6CyDmkrwiCSBMyVCcAV9G7Hopms9k18jSO8ncVuhszxhgLVcS2baPVauHo6Ggo5V+v19FoNACEL4NIEET+IH1FEESaCGeo3n7pduy0Dz96GPscN21Unr2OJ02XNm5818nJCc7OznB6eho5UhVwlP/Z2VnXB8L1RExPT3vTvQRxp5EBnIEPf/Bv/gBffPEFLG51pfUTdl++9eq38Fc/+Cu8sv4KPtr8qOt4r+f28KOHXcf9zzuYX5JnI/rzJohRk7bevXTpEuYuzuHe/3FvpPpqGGN1bm4OJycnkCRpYkb5x31uYXrM1W9Rem5c+pkgggj3NvarzFEV3r8vmCaJEg7mFWdfWBn6XTOOnP50v/fPfs9T/gBQP6qjXq93Xccdzequ6uLHHbTQC9u2vQmwW60W3v7Tt71VXaKUv/+euPMOrr2yhp/++KcAgI82Pwp9bkHFFkyTxjNMQhbPOw2iPghhx3vds17nhR0nikMWevdbr34LALyR/IyxrjSuvvrGN7+B//LX/6XjWnHKFtRXjUYjkbHq6qsLFy54Xtuo/KN0QdR7NYr3Kck3J7jPPTfKWB2lfu5lLEflMyn6qpeeTXIseLxICGeoZk3UCxVWYXop4TTzDvLS2ksoz5Vhn9kd5QEc5T93cQ7v3n+3Y5CCn2EGFbjdcJIkYXZ2Fv/if/sX+PPv/Xks5e/Gkr31J2/hww8+7DgWpuj898P9v5+SD0sX3Oc/f5zPOw2C9+P2S7c7yhb83/9R6Xder+MEEZdmsxnqNT08PMSFCxdwcnLSNe2UHzc8wCVMT0TVy6C+Ojo6im2s+mNf/QOnot6pfg29qH1ZMsg7G2WUjkM/D1PuSdBXvfRsXB0suoyjQEhDdZCWRPCcJJ6wfh7YsBctafnicnx8jPm/N+/9fv78OS5evOgp3MPDQ++Y31ORFq4ndmZmBqVSCeZzEzMzM7GU/9TUFL7z1nfwvbe/F7p6S1SrPNhi76fsw4zQpJ5EUZ73MAzqEQ372IggDzFekurdUqmEf/6//nPIzGkwKy8o+Jev/0s8/+K5t3qUP2zJsixs/nCzp8GR1Ih64YUX8B/+/D94+upbr34LP3j/B/j2H38bb//p25ibm8M3vvmNUHn8Osr9P+47NUqvaZr0Mu7GpZ+j8h6mXoTlGUw/Cu9sr+v2Ojap9SsrRmKoLn94vefx3Zcfd+1L2q2QRdd/1PWD143b/dLvJT86OsIf/ds/wp/9+z/DH975Q1y4cMGbNNtvIIZ5KpIYq5W7WwCAixJwbHceK5WA/e/+z57ibrVa+Nar34LygoILFy6g1WpFxqy+tPZS33sRR9G5xEmXVat62Oc9SiaxO4zInqz17uXLl/HO//kOpqamIEkS7nz7Dv7s3/+ZFyrkGohBY7VcLicVBQ8/egjbtiFJUtc7/9LaS14MvKuvfvD+D9BoNPAH/+YP8OO/+rGnO/3nSpIERVFC8xvknYpryPXD1c9R6PduduUbhzi6clL0s0u/735cwzfrcg6qo0m3OwjpUR0lfu9ZL+MkbH+SiuOuchLF6emp93f58mU8/+K59wGwbdszVl38yv/09BSzs7OJ1qC+wgBlFjhslHBgnZer1eoOHfjpj3/qDVRoNBpdMathXRhR+LvQwro6ojwaYd1Q7vEkz2JUz3uURHVTur+D6YKQMiTC6KVPTk9PwS4wb2WpUqmEZ///sw595XpagU59xS6w0JkAenF8fIyTkxNcuHCh65i7EICLX1+VSqWBBljF0VGivCtxexsnQT9nyTjL0K97P6pOUWiWQ24M1SRd//40SVpV/fKIOvd3vvE7+OHGD/HFF194ntAgp6eneOtP3sL33/u+N73LxYsXYds2pqamPM+qzGTPm+mOhJUkaSAjtdkq4flptPHsxzVOw2LAer1ccbp8ws5Lki6uMhzV806TMIMzDmEfpyh50/ACEfni6OgI839v3vNiBnFjQ3//td/39Fm5XMZ33vqOZ4RevnwZjUbDMxBdffX9976P3/2nvxv7vXWN1LDJ/qNw9dXJyQne+pO316AsUAAABTFJREFUvJ6grBDZiJgU/RwWZpAloug8CsXqj7CGatJKlKTrv1frJdgy9O8bpqvgjTffwOzsLF64/AKef/E89PxGo4GX1l4C4KxxPXdxDn/0b/8If/kf/xLHx8doNBpdo/aTTkh9fHzsGan/33EL1ln8c3sZq4MqlrS6rXopt3E87zRJO4yFIKK4/dJtlEolqIrqDU6Kmoy/0Wh4gybdbvbvvf09zM3N4fj4GN/+4293eTMH0VcnJyf443/3x/iLd/8i0bRRboy9Gwbg6q9h6OVNDfvOiGJwiKyfh2GYa4rwbETzzovKSAzVsFiofowqriXsWNqV56c//qnnEf3OW9/BC5dfwF+8+xcAzivqT3/8U3z/ve9DkiQ0m038q//9X6HVauH7730fU1NTkGXZm/g66KmIi6v0/+/f/8eYm5sbaK7AoLF6fHwcGnMWV4Ek6X4f5Fq99rvHRFYWWbS2/V5aEWUm0mEYvevqK7cbP9jlPjc3h6PjIy+tZVneak6uvmq1WpFzm0YZLv79wxipLq1Wq0Nf/es//Nd47/96L7XlVv3ldhlWnwRjULNAJP0cTNOvXvjLkZb+ykoXxmnYJD1WRIT0qCZ5OJPysZ2amsLc3JwXTxr0VJRKJU8Rn5ycYHp6Gof1w45lCEulkrfaS6941zBOT09xcnLiGZrDTGjtXuP4+BgzMzNdSj+JIhtE6YnkVeynPIetn8Gu/6DBGhWH2i9GNUkMK1EM/M/f1VeusfrC5Rc6wgB+5xu/46V3FyI5Oj7q0FdnZ2fe1FNJ9NXDjx7i9/7Z7+HypctotVpdRmqwJyROQ9Rt4P+n9/5TTyO1CO/FpOrnfs99kHoRljZNnR6nPoWFlBWhHiZBSEM1yKAVf9C4vizKAjjK/y//4192eCo+2vyoy2i0bRtv/+nbHZ7KZrOJZrPpKe0kMakAMDMz4w10cEfeurGwrkek0Wig1Wp5E1+HTX4dRVhcUpxz+7XYe3kUw9JFXTOMNJ53VPxX0rIkySONY3GOE8Xmd//p74aGAYTpK7cRDTjvjBvmxBiL1Fe96t8H//kD1Ov1SH31wX/+wNNXpml6+ioqBjsJw7xTg+Q3LHnTz1notCT1Im2dPkhP3yD55JlSq93U1fY1VK9Wx12eQuDvVnM9F37lf3R05Hle5+bmvPRnZ2col8sDe0ObzSbq9TrOzs68a7vd9/4Jt13cNARBZKMjJ0Hvkr4iCGJcaPvaZHhU80awWy3oqZidnUWj0fCmq3KZnZ0dqst+amoK5XIZ9Xodp6enKJVKaDQa3hKEbnwZ5xyWZeH09BTT09OpLihAEMRkQfqKIIhxkqz/mBiYk5MTHB0debFafs+E32MBON30c3NzXndZqVSCLMuJvAXNZtNbB9vP1NQULl68iKmpKZycnKDZbHrXdvNjjHnLs7prYRMEURxIXxEEIQrkUR0BZ2dn4Jx7caZuvFUvT8XMzAxeeOGFxHnZto3j42OcnZ3POzUzM+Mpe8BZkUWWZRwfH3fEovqZnZ3FyckJWq0Wzs7OhvKMEAQxOZC+IghCJDreZm1fG1c5cs/Z2RlOT5xusampKcxemPUGB7RaLZyenKLZbKJUKmH2QrJVplyazSZOT069AVHualitVqsrTzf91GF4Pm6ZWq3WwOUhCKI/Iupd0lcEQYiCN5iKSE6z2cTZ2Vns+UzdSfJbrVbH0oPutXoNWIhTlnq97nWNufMeup6PZrPZ0UXWj9PTUxwdHWFmZmagtbkJghAL0lcEQUwKfn31PwBSz+zuPE6WxAAAAABJRU5ErkJggg==;" vertex="1" parent="1">
          <mxGeometry x="10" y="360" width="682" height="181" as="geometry" />
        </mxCell>
        <mxCell id="bap-exABjrLOmZxqaHPS-3" value="&lt;b&gt;&lt;font style=&quot;font-size: 14px;&quot;&gt;当前问题：数据异常时，由于任务数过多导致的错误任务补数无法及时运行&lt;/font&gt;&lt;/b&gt;" style="text;html=1;align=center;verticalAlign=middle;resizable=0;points=[];autosize=1;strokeColor=none;fillColor=none;" vertex="1" parent="1">
          <mxGeometry y="40" width="490" height="30" as="geometry" />
        </mxCell>
        <mxCell id="bap-exABjrLOmZxqaHPS-4" value="" style="shape=image;verticalLabelPosition=bottom;labelBackgroundColor=default;verticalAlign=top;aspect=fixed;imageAspect=0;image=data:image/png,iVBORw0KGgoAAAANSUhEUgAAAGQAAABkCAYAAABw4pVUAAAqqElEQVR42u2dB1gU1/f3Lx2xoKgUaRYsIKAEG1bsscYSNDHGEqOxK1ZUFBVREcSGYkPBLs0C9i7YGzbs2Du22IHd854z9w47rpiYRIHf/3Wf5/vM7O4s4PnM95Q7AzL27fHt8e3x7ZGrD9fARTY1Nx0agbs636KRBx42m461d9h/9RTu6n6LRm67Y1rod0Ynn90zP/LgwTeH5ObDz0/XbsWmWsZnnj9ml9RQ9NC9e9+CkouPEjE73PKdTDvBrqjVKCh65BuQXHs07NKlaP4jd08jCBXBIBXjQD4/ZdUsY2HespyNtZdQF4V6kypp5P0F5IX6uXVDi04tahdp2bKlCf4Iev8nCvjK+LKFDt1KYldVwK4JXUUgR/8ZEJ3GruV+b1jY4EBrU4NDHVBdihgc6mlmcKgvakgxg0M+KF9zg0PjUf4WBocCUFOEAhWaJsvS4FCw1vNpiuNG4NerVyTf/lqmBtsbWuSPr2tVaGXDklazmjiWGl7fuXS7dnXcv2vYsGHR/yUYxRbEWhU4cnsdQsjMgiEBUf1jINKjg6NtaJuCOhldCjJ170IMhhRmMBrlb8YgqCiDWcUZzDVnMB+1GBWOWoqKtOBahlqu0Aqh5Vqi45bh58YXYdA6P4MfhGi/hQmDJsYMahsx8DQzTq9fyjK5YQX70T80rO6Ux12kY7XzTLQEIBXT1HUh2sfXih69+89rSDMHh0JedkWndDLVfd0XgYwozIM2DWHMLoYgEMgScx7QVZYM1qDWomJQsag4oXVC60lWYqslej/OgsP+tSCDX4Q6FWDQAcH8iGpLkBBQ03wM6proqhpZFj5Tz9JsXAuXMu7u7swgr5Aot2BVMbN9lxewKxlqDgOh3FDxbSp3idmxe3f+1Rf/pbpDoc4OFt49i+q/GUnuQCAhCCRMwKAzfq0AsAEVjwHfjNqK2obaXoLBDqGd1qgS2WuHNT92kxX/Hj3xBPgD1Qv1O+o3VDdUZwT0E6o9qhXCaWyik1m3oOG1NuWtfH9t4po/1+eMoGX5Cydenq5zNeOdBECGcUMJRQ1mx+/f+U/fqHPpEt0Hm+k9x2CpCQi5g9LSGgEjAQO5RQR+DwZ3L2o/Kolkw3XwM3QAj09E+SL8wShv1CDUQFR/Uwa9BSCC8wtC8RJgmpvqpfepZDHd28MmX67R8PLSs1p/YKDepbcZWSBuKiRDQSCFj9699Z++14BmzYx6lLP4faSFwZNATCvzivN6sdqCp5vNJfgZvkcE9AAG9xDqqNAx1HFbBicUOmmnJVsueo9gTsHvM7oIr1ujUOTQYQTKlMMh93QTaa0tQuleXEc1o4ZZrF/DUq45PQXbeIfkM9+WPARhvNfAwHR1S6GbGpf8ZyD08PRk+j1d7BqNMDe6E4I1ZKFIWTHCIeSOfdb8TD9MEESAT6GSUWdQZ0l2mu25bESv07GU8qYilADUJNRElF8RDongDCEwCKUnQulSgNeZEfiZRVVNTvg3KVs3J51hviu5t96F188+cMYtbSACypcCIj/6VS7beJyVceochLIEnbLGghfmLRiM3SV4mjpiw8/0ZAquCPR5VArqAuqiPdelkhplvaYQ1afAoryro2ZiSlEOaALKtwhvNCilUSrrhlDaoVMWOBCUfI9969o28XJyMvza3ZTNhsTvDc4+S5MK9g0FiNuoO0K3FS750kDoh+jnWKKxr12BC6HFmDoSnRKFUDZi8LZbCZegjiOUUwLIeQUIGcAVoat/oYv4mQiEPh3hzxBbghMowJBjRgm39BUpbAQeF1MRP+eu/yakbnFfn9p2Rb4SDF2rjUfa5Dv37IEE47qWK+5kB0T9VYBIj+4udqX9ShY6gfVETXNElOiyqGuiGnDYmteNZJGeyB101l8Wwb4mlPo3Om3Lu7rZQjT/zEAwwUV5SqNUNgahDEX1M+Xd2fIy+LO4MvWqSjpvptUxX+Hl5fHFi731+qT6hmdfXM+CIaep21ruuKN4jYDc+EpAJChOdk5+1iZJc9Epy+jMtBBQUIklNKnrtEhbskuufiYM0jV7Xk9CxSAaipqDmkVQinG3TBQpbDhC6YNAgvHk2OmMtc0F054rOqt2kcMj69tV/FLXICyXrHfKf+rh+aw0dTMbV9wFlJrrtsIlBOT4VwIidWB13Jx87QrGz8Euh6BEiyIvQbH+GIrsFKVLtKUNhT5DXd0cAWWeAENuCRFQaKgci1CGmfIUluikgRKNbplfzSR5QgP7Zv/13+u2bH2VfKcen9A4I5uaQRDuKYDcyUEg9OjkYlfEp2SRVRiwTJpPohXpS4JC6ctO4RRRtC/b/3UNUUKj9plSlQxEdstsAYWKPnVjY2l+QZfE4GeSnDmUTeiSWISy6Dvd56Nau/b5t05xWhzlkC/50ZEsGDdUH8KQQZDuiy05JaeB0KN3Sw/rUfaFVuFZm0GFmAp9PILZgWD2I5hDotAra4qy45J1we5DXVLAi8avObMYT1/zFGAkKKhpxXixp9klCJ8fw+KehNpFUNApcQhmqZvu28B6xSfjEGn2D6dw84JHb8fqXM9UZ9tNSTCyUTZA/vXSyT9uyT2czEaXNw8JNtd9K0Gx5N3XDtF9ERQaEk+K7uus6MDOa80hZ20/nlUI4DH8/LxiHAqlr1CFU5Tpi2qKD6at444CijOHsgWhrEMokW56b2bULBjdq6W73WfB8AsyL5x4LYFdz1BlW7zvZgdEJbbZOeT+LZZTD+r9fcoVnzyjuG56BAZqrdwS0+BYgrfER2000zq1xsliK0/tWRO94rXTYmAk51F6mim6rlCtQj+dui+UH7pkP84kyQjkqICym6AgkPWoNZWYekY140vezV1c/urfU93Pr5DpsZsxGEz1BzDufALGfSEJiICiBaTI8Xu3c3RZx8PDI99A+yKTgq0MXi6m4dH8w+ExUbjlsGJ5hYr/YdEuS2tbYp45JF6jY2jyp/QXZMadQI4gZ5Bb5ggoM8WsEoDajGnuPBb3UxW5Uw6g9iCUreiUDa68A5tXxThlQn3bHzwZ089mCjc0O3w1WPf6u3cfdlB/AUIp+b3cqCEfFUB0ysgKVj0DLQ3SFhfj6160HL9JLLPsEUstiWIhcp9YlKT1sJ02YnXYWrNYKUEU8Mh5EwUUcsQM4ZY5op5MF0U+Fo+9hEDOOWmccgCB7EVtQygJrlIHBuFVjB9NbfDhinHJbt2Mix04E6J/5+1b9kD1YYDv/Q0IbSBypyWm9VwBIk/1Pctad5taTPcFOkW9wpwXZlqq32TJl+m3C5F7CNZGa13YNXkJ7JwYBhsq20vPN4ljJHeJtDcGW9yJRfgiZJBwy0x5cCzOB8dVeOxVxw+hHEcdQu2jDsyFd2BU7JdV1s0IrFt8lpeNTT7m56dvc/DMOPYkU8XSEMYj1ENZGNQHWoF/AB9LG4zsEgJyIveASFC83ct0nWRhmBqGAyQV+9WiNY5TXKSKw4BH2xvDxgGjYedhFVfiO0iYNB/WNW8CcfhevABD7qJUSN2UDIUcIS+xSMss+Hw5HnsFgVxBGBe0oBxE7RdQqNhTXVldWUc106NwdM3IcD/9tNdP2EsE8ByD+BT1WIB5JKAowXwOENkleQAIHyArWDUZb53vcmhRpqZLvrQGRpdwVwlJVx7btYP47WmQgDASDqslbTqUCZu2PoCEWethrVspCRy5iWBKS/OmfLFxskhhNL1PF2krAo+5VB5d4qSAgiBOy05BIImi2FMKixcpbGrnWun2F84Be5sJ7BUCeIGBfIbbJyoORgaSBSYbIA8UwJS15FYeAUKPvu5l6o+2NLwdglDmisvAC4vzbVhFG4jZeAtiDqgg+iBJLSkW9+NQG1AJO9IguuMvEGNrILmKZg5vUw6GLi8HFOEdVpDQEgsO5LqTFhQnDuUk6ogo9lRXtot5hdyyuGV5sL50HqGkA3uNEP78lFsUqexTUjrltgqKHr55N89c/f+1mnMVH2uTwzhVq6hbktKMqwMsW3ESViGMlQfUsAK3y3G7XOyvRBhrUQRn497XEOcbAtGO5hJIWuX1FhexaPWXpnWCQhfSwhHaRQRyAwFcE1AuaaWvk6LYH3TW1JXNojWO8jCFhrERYPj8JXcKQXmm1jhFgqL+e0lNgWiBj9+D/MNmpeapWzL6VXKoOMDSeP+Ywkw9vlRxmBsUB0uTVLAEAYSjFuO+rHB6PUkNkfj6yoPcPeSWDfO3wtpKJeGPgnxBke6K8SEo4oIW1ZXFBKQCAsGApwooV5RQRPo6pZXCdhEU4ZRVNQpA51nj0CWK9PUUt2l/BUX1oWQXpb4G1ncGmLYYkJzn7pPp065d6a6WBc/69x4LC/ZnQliiCuYlcYUiAFlz8fl81CIUQVuBYKLQNesJyoKdMNXBQro41Q+hDBXpy090YAswZaVQyhJAUhVOuaxwyhnhlGOi2JNTdig6sOhKCHtIRyh8+z58UOhlp0gSqSxN6KnimEcZwE4/ANbZH1i7sVC4vU9ingPSbMAAI+8Fu5ZM2/UKZmCgZySqIQQBTEcFK0TPZ6DmoOZLbsF0hvtRBzmUuDkbobu1GfQoyC/pDhX3j41DIPMQyPnyGhhKIOSUi6gU1PmKGijyrLIHgWxDGBsFkBVuOtB+UZCiyMsB15IM4pl8DB6/9yIw7/kIJBCY10QwazM0Os/dSNZrxYnBY/emvwtAZ0zGAE9BTc6SKkv0eqCAM0u4RYKCLokS6WvuxKXwS2F96fr6QFN+XYSgEJALFTgEJRBlPZGgIISzFXlNOaGoJ9vF8BiDQFa76YHL4X2iwKu5S54pACghPBPvP0VnrE0C1n8BsB5zgHWdDqzDJLDo7Ds/T9HoHnmo0ZBdL2/5Igw/1HjUhE/IHzVJAqOCINyflaiBQgU/GhW74wmMbNkBuhTk19fpzpQRpnyNK6UCD/61bHRFAUV2CdWTw8paItLWwjbOwN4hjLeol2oO5YUIvKwXQlT8b70AtnA7wghHLQbWGx3SYxawn6eorbuNG5tnYPT0Cy3Xa8vj00MxsD6YpkbjlsCMRY3D52OFxgmNF8AIzBThlNkIYwEqAkWdGbXFyyOPQUczQ/itIK8ndJEqzJLXictO2UO5It6TgcgF/oizWCEWQOJddeC7pJ3A0gWQV2oNFKXotRdY/JMwRYXEY5paDmzoCmCDIrCYLwTWMxT0uwRlWnYe0z1PwPDq4W3226Z7KYMSVerhGOwRqFEYaIIyhsBgsMcqJaDILvJHAFNFXQkVhX4Z7lNLvOFABozrNgg6F+TX1enmuoVWvEaQC65U/BCKXNjljksGckLbIajA3xsDy8jgQMglr0XwtfX0PbA1mKJGr0XFAPOJBjYS94cs5y7pNRcMf53ysrjX8O9zHcYvszcX6rbuani/fZmZ3hjkYVlAyCVqCciYJC4JzAENGA5FLaWwAHx/Gmompa5E3nmtFDNK/M7n0MmqsOQSSl3LbHhtSBEukJ1yVav9lWuI3P5KNQRB7KB5pHoBqLVzHTA1BjxTpXHJG5Ka15Rn74Al3+SuIBBjN3CNwc+NjgU2fBW6ZCmwP8LAqPOUmzZtvKvlOpBOy4+N/GPv25cDMIhDBJCRWUBkh3B94JBsgEguwf3QRD6rUIFfKwr86PZdpRu2e4rLuHTWnxeBvySgXFakqhTFPCJP7kmiy6Ki7j+wNeR/8fRDIHItoaWVu8+BRe4FNi4O2HgEMmETsImb+dYvnkMZsYYD6TUPjH6edLxyN5+SuVs3AiNa/56oUhGMwSjZHT5aMJRpalyiBoSfVEvUMDGrwPO0RbVkISoSgaxBGOtQYYHR8DMC6Y7aIi5QyS6RoVzSgqF0x+GKmnRFsk9N4TBIKgHkPbkjHVhsIjoA09L4BA7BfwuwSaSt/Dm97ktAVgMbsESqISadJmyk60W51t52mr+r7u+7Xz0cKJwxXAvE2L/ptCbKSuI1JCBJWdzVvLhjelsl0tbSpYegR2kb6GyCZ7ojrwmnnQUU1AUh2j+n6KxOiGIuXS+hobCGKTRNwIIMai7ZIQ/QEQcvA5tJQUcXTMJOKgA1GYt+4C6uKbjvv5UDGY3OGboSi/oiYN1mgPnPYyfkmjPazd5j8/umhwcH7c9U8xSlyuqqxgkIE0UHFZD0eSIYU7McQkDUAogaYhDImvWp0Ne9irScQkshx0TAJSioc0K0L3dV0kDozGuH5I7KBtA9bCLoZGYKGJSm0BHbTgNbgEU7AIM9dTcGHzVN1h5gQXv4vgQEnTJuAy/sgyOl+sE6BqhdO3vXyRUYnn5++t1WndlEKWqkor31E2d7gBgCp4rBb5pQkGJ/mnhPW+SOEPwac0TKUgJZv/tPGFi/Kfib81pAHdMJEfRkUSuSFSCOi7pBMPaLq4mTh/0E+u/fYoqi9Sss2AmnEAC6IARhhGCaCsYBMXj/hwraq4ExSeGOYVjQ+2GH9dsctdVPY2hRMed/86v1iMCCPaLOzhyscASln0mJfMCTAy8vi8z8hOi9kER+nFL0Gk3tc0XrG5kFRA0JBzNh0PdtYUlJHmAK9BGxTiWDOSFAHBUt7gEBY/d3xjDSvy8YPHkG7NxdYHtTgc3CYM8+jCnqILAZpAMciiyCE7SPO2QqpquAbbyg+8rFPEIq5gZdpqWX6jjcK+dnDS8vvd5RF/oP2/vulQyClkcCMXDBuJWCmaiWzu5QsZgYJkmdJb7ISAuLeBx+hoo3F09TsxP5HDJfrAhHKhwSj9uhP3SGHaJTShQBPyTcIuugGP4SxTLJlpqFoWPwZNCLOonFGge7hSeAhR0HFnoUoRwSMEjokun7uWQQWWlKOMN3PZ8/vJcB64MDYdcZavM/pmxgX/9u/GxumFt8sNqw7c+e+gkQ01DUos5OzIQ5e95DyLbXELzpTwjZ9BLmoMI2vYKFqKUJryACFY6aj5qLmpHwEoLwmGl4PGnmzjcQujdDmj8W4NdbJJbmlxEQ7LRiDmTC8vW3wKdFe0gQ1zYICs0Uiagksd0vXpNudqhsBAm1rME6HNNSBIJYcgZh4P48hDFXhoGumJ7EFayAIBXwHbyoU1clt7kEg+pGnwVYO+aqjUeFna+4dXelHIfRY/Zmt2FbHl2jIh2Imrk/E/zXpUH3kDPQa+Y16OR/Dmr1TYIKP2+Dil2SwKX7Uaj0+wnUKUmuuO/a4wQ4/3YMnLsfhopdE6FC511QrmM8lO8UD82HJEKXKSnQe3Yq9AhJAe+wyzA7/jmsQjBRqFGjFoNpwcKAPwo0K6oL0U58xZbA7HIVcuE3zZEz/Dr9CC19gsFw6QVg4ec4iPknOAg5TUlpab+mYMtd1GQEMWmbor1FV4yK4TWD0tQf8/C9VWC4bt9z6927W+Q4jG4+M0oO3fbkANWJWftV0H36Kaj+x1ao3uegFFjnHseg8u+nwa3XOajS+wLqIlTpcwmq9bmCugxV8XlVev2PFHDreQ4q9zwLlXqekgC5IiCX3xBQtwPg1DWJq8s+cPstCer3T4aW3meged+9YGxcQIJB0kENsdGVbozbIoY8qhMb6ttDI/+l4DBtM+RbgC5YkMwhzDsGbM4RjSPk+kAQqKMiAFQfqHuaICCQIyQQOI2PUCyRdA0GFn8E9O8/Si+9bl37nIfRzc/YO+ZK2KiE56rBi65DhZ9i8IzeBY7dDmJATyKIs+D+BwX8ClTtkwrV+92UVKP/raz9an1TUdcQzlUJjvsfFyR4lXomo3NOIZCj4NRnL5Qdvg5KBy0Fk+P9gd1rCex+G2CPfwTdC52B5TfIAsJ0dPBMxcDsxC5pHRbppbcw8Od44MkBJBnATAFguuiWslywnQOQIGzik7jfRrEsEscdQYWbasUQdIUfumM5fu7tO9BRqd5bpKQEULeZ48Pf4OUnx/46+8w799/jweGnLeDYJREDeBzPcnIDnv19rkvBr9H/LngMuAe1Bj6AWoMeSNuaA+9J8hhwB9+/jXBuSHCqonMkKPg1nIfuBavImWC6Zwiwuz8IEKTWwB62lYCwJ51AZ3pjYEb6EhDdenWBXb3Kp+sbj4AduIK6BiwRFYHpaBzm+gkJ/KynwEtnPw17W8TZv5HPEWPX8+DTGtUoWiyM4oPeQJy8B4cDW4wAEhDuPpxR3mfyARJnl6K378SWjIqyzHF3DFm8t2eNvnFvHX5aB+V+2YFphVyRDO69LgoQdzDY9zH4jyTVHvQYag8Wwv1agx5KcDiUuwLKdaiKbiEgFYLXgf6VLggCA/+gtZZ+EEDaA0tDKI9/Ara7IwYdg/3kCR/o5ClbLQY8GvZe4Yzx5AXqT/wM6iHu70dgEQhlHrqjN+b/X6eiAoH9MhlYj5lYU/C9pQjs5HX8vui4R6i0F5IbpK8rQJCK37p1yWnrVrMch9GyX7hH+U7hqSW9YiUYzt0OYXo6g3XgCgb1lnDDQynwdb2fgueQZ6jn0rau9xNJdRAMHeOBQGqQSwZch9o+N6DW+CNgc3QS/sPbcT1sIwAoRM8ftOHvExTSLnTOTTxjAT5D6g+XRtRa+9lJ+ZmPv57a+PHjaxXWrCmXC7O4n27pViFL7NutUZfttA0L7UEJBtWJGv1uQ80BDzDYaVDPW0AY+gLqS/pTes5hpKE7HnFn9LsCTac9guZz0qD1+ttgfnE4Bh0D/Kg9D/gDbRAKESxyCh23rCqw1AOfCeRLSg267989LZGU1JH+YFmO42jY+meL0u3mvy6NLaljl/2Ypk5hirksnPEAXYEwJBB/IoSXUH/Yn5I8h7yAukOeYspKE6nqKrSe+wTar0mH9tGZ0HrDLdC/9aPmrFe6g9KUVDta8fohpy0ZFqWsScWAXdyW4zDIPWUTE8fkCgx61Ogw3t+23Woo12kHFvAj8F2vFCzGNzDA96UURTDqZ8F4KYGoh6lKcsXg+1B/zH1oMeMhdIxNhx9jVdAOYbRAGEUuD9C4QnJGG03NuN8yG7UWrsHtFdQw7K5OrMhRGHrp6enFz19YyHLr7yi6u7sblG07/WrpDhvQHftwqEuWuiIPLOC1MQXVHfxEpKg/pTRFKaoO1hAq3I3G3YMf5v8JXmveg1dsJrQnGKj20Rlgc3oiT1OUfh4oXdFKBL/FXwPZXRPYcGx5E0blGBAdlVpd+N6DjQ5Rm4vn3uXYPr7lLVqESbXDufshaV6gzojcQUW6DgIhN0iOwFpR25u6qlvQdsEz+AkhkCPax6mhbZwK2uB+62gVuO6P4IF/qAWCWtx7LbN3xwNSK03aWl4O21IEMqfOJ4ruFxamKcPnz+9WCQwsn6tXAN29/DrZtlvJOysc2Nxxuqb5gaerR1JaquOdJrW09Ubch6YB9+Gn6HR0hIqnp3UEQw0/xKqhdYwa6m7Gifl2s2wcIWDcayHckY1D5DpCaS6oMAcy0gjY05tfvWYYPntxr/yqqAa5fn3cqc2kgFJeMVCh825pAKSlEJq2KSXVHvRQgkKDXhP/B/BjxGvoGMNd0Q4dIYFAtUYYrVBN456A5WkfnnqUID6A0ZzrXjPxvKWmuGfNI9gIjNYF5oNARqCi+349lxCMP18+szp+plOuw/D09NQv22bGqtId14Pjr3uwuzouOYSmaz4E3oWag65D20UvoINwRHsJhCoLREtUc9T3mKqqb90HurdafQhAkgxAWy0UoGR3YPG/gfujEMhoJqDgxP742leAosa6kZlhdvFykHuvXrn/l+zadPMrbN8mbEeZLCDHsMM6D1VokbDvVWgwAYv20lfgha4gEO0UMFoJGM0IBqaqZmtVYJ5MyyHNBYDmfwFCVnONS+QZhNLVeXxvDHZYvoxDGYn7G/Brp7/5sqlKhT/zjVtx1fr1yxt/lNPzJ7+Sdj/MO0ZAeMo6ApV6ngH3PmehyeyH0HZtutQ1yempDblCwGguYDTF95tEqaD2hmTQufk9Amn2NxD+CkhbvmxyvBHCQAhjmQbKBAt0zsEvWjdMr1/f675gQbE8cyuoh9dEl5JtF14q1SEOynXeAY7dDkDlvsehcdhj+AFniTYCQladwG3LOA0IUmNMVY3XZkDxk+SOpv8AhiJtyR0ZuSPNC9iBusDGIZBxjIvAjEEtqQfs/YsvkLrUauMnTy5Z7zlQOU/dKO3azq+GfZv5d0piUS/baTNUGnoCGkS8hGYxKmgVI0AIGC3IFQQjTrgCj2mMaohA6sbdAZ1rjRHI9zzItJXUVEvffyy5fhAQaWGxA7B92Or6IRA/BRBfsd3XGdibR//JHcYvX761PHKcronnrf/VoExr+jX7sCf2P64Bp2FHoPaKN9AI009TDHQzAUCSXCuECEYjoQYIxDPqNVTcjRP1DTyD7zT5PGUBac6BPJKX3mmVtzoH4cc+hEIuWYTF/tBArCev/12qwjpkEFrrTV2/Zk3y3C/aOLYe18K+bdjr0oP2QFWctmshjPoi0E0ElGYKVzQVrzdC9zQUouM9CQoWdZdtm8DgEtaCmw0/rVtYH243FmCa8pojpSwB5OnPwHZV5yAmoCaixgswBCUAtVoP68xoYO+e/rP09f4VsPje9DXVRmOMLlgPsa+fp4CU/ynwx9Kj9r53Xp0B7hhQD0o/dNYLKARArhVyimosw0BYDVD18LW6+Lk6qNpR6eCyKRHyn8GgpmLaua4tT3QRqQEHc0ekMWp9s4B0QiA1OAQZyAQFFHLLMtQqdMpurDdpZ8RS+me441gosBmmwKZKYNVGE0yuOQwp78Xyyv//USX4xK8VIl9lVlyjgu/QHdUpqOKsbygANIn5EAZ3h0qC4YnbOjH0GRXUiiGgaqiOX6tK9CMwO9IH2BU806/VEPJA1UTVQlhYtG/UF05pyuvIgzYaIHvxuAk6HAbJX+EUAhKK78Xhdg1uo0rhZw/+PYzbeMzsAggEPzcdFYyaxtR6kwyeWvrYdssTUKrNTulSYeU7lSO6ww2BVIvigSWX1BeBbyRBAA4ilouA1RMwauHrNVE1EAZ93h3ltjYTXKMQyr6RoHvODdhF0nfALldBVQN2lQDV5lBuNeZpi6Z0KupP0F1J+PpEAWSSQjKUQHwvBrfrCAoq0gBYYn+EeQFni4yPJnH28BSwMHTGPMYVSmtkTIajNp5skmY52roby+2/QU9AyiOQCgikMgayKqqmFGh1FpCGmK4axaqyYMhpqo5wBcGoHqXGz6oll9HXccav57hKBRUXXz1rsdltjt7Rsu/ZWSdgKc6oShwOuSe1Nk9f5BKaRWhKp6J+DCGN1+HOmPQJKMuxjsTjdj1qLWoFHh9bAVvmocCeXdbUlhc38BhMk4vxmHDGtwtRCwSc2dwx+pP1n5r5Wfl6enoa517KQiDlVr6VgFTKAqKW0lY9VAMBpKEAQjDqo+oq0hQ5o4qA4YpyxJRVbjVulz67U31qYm3WixnYLHccrn/I7g07XRbYGQza+YoKKHV46qJui1rftI7AzrbiQGSHBCjkL2rKZASyHetIgoASTXWFwFCNwdS0FcG+eYj1qCuwpfhaBDlJiJ4voY4NFSbcEsJAJ1DnndVo24BmA5oZ5R6QFW9V5RGIK4oC64EgKA3VjeHBb6BIU54inUlpKlp2Bk93Lvj5CgjDAWE4LHmZ9l3QiQ5yXvb089S3CXfuYbSnRCo7YQcsGcGccwR2oTKHQoX+NtWS1ryOXEf56fLAE5DJqCliGyBeI5esMAa2DcFtwv0NqFgBZjVqJQmhrdThoJSi95YLOOHCMXN5CtOdqvvWbGyxCS59ahfJFSBlVxIQNQJRK4DwlOQpoNSXuynhDBlGFQGjIsIgqGUQRvmlL565TD7Yhu4L1r7FyH5u5ZomW6wT2RErNTtVGp1AULC+XK3JW2JaB3uIaSuty8dAlJKdEojHbMH6sR33N6M2CrfECsV8QlEiza0SHdtS4RZKYbMQyjS99EJjC0U27dXUKueBCIfQGe4exYtzLUXa8oxRf1jABQx3US8IRjl0RmmsGfZLX72sEHi86199T7cRtUoUjrNOYoctVBwK1paL7iJ1NeFD4hPstEKtuAv8tWBMUezTe8vzYVrSB7YD97cw7paNwjHrsxE1AnEKYGtEmosQ9WU+h8KCdFSm48xWmw1wKJSjQBwQSDktIHIdqatQbQGD1wxN8S4vYNgufZPuOuvSGA8v77/9FS/3kY1Mi662D9VLLPFMgnLeBVMXdl43G/BaQmtam8W07i8cMUVoqgIKuScEYWw3QSh6HMpW4ZYEoXiFNmrBihMpbq1IY3IKC+PFXmeaTmbRiVbry/YpWzqHgagRCD/rqwsg5IY6sRxEbYUzKK25yTBQpTBN2Ua+z6gceGSMh3fIZ/++nZWfu0mJyHJ9dfdbvGCnHXjqulaHd1xU3K+15+tXMhDZHYEKKHI9WV4Q2D6sJ7sxfe3U4SlsiwCzWbhGVoICzgbhmNhsoMwXHVgwU+WfUHCv7WhH5xwC8k5VFmE4r+WdUjWqIyJt1RL1hFphZc1QOsNuRcb78iEpU+nern/zM1QNqNPQeJfNfey+VNKMQrXkHnZZT3/FtGH6cWEPVGiKop7sMAO2H9PXHkMNlG3CMVu0pISzQVF3ohR1ZYmAMkeCojb1K3zUqp+VfY4DqapIWySPGE2a0oZhuwL3Q28sqTkszvy//By2c5yr5N/hsIuddcmUasldkbbWufDlkkkKl0xVAJmqSF1zjBBGIY1TdunwFCZDUYJROideqxlQQglXQAlhapPx+ZNtRjnU+2pTPQEpI4BUXMtTkQxEAkFDX/THaao0pilrhOEYcn6t59BVX+ICj06ZJVVtS8S4rGIplflcQkspJxohCEPNgJgdkKzUhQDWYuranx/YXoKCtWUX41C2K6Bog0nIBkq0llMWiOkeoRj7G1+yG2jX8KsBKS2AOKEqiaUPgkIgaMaQneEqwVCDwxpyRmZGhbk3t5T/LbzgF/6RdK3W1fDXS6n5gt1vpWY3Ecp8K562PlXclQU+GJ2xoxBPXXsR5G4s9DsZ145sgGxROOVz0xdO9fkC8t9zGOJYg33c2n8BIMvfqRww0I5iWv8umg+I8vSdNfQJZ9iuxHlj/v39zr4Jjl/jJKFib765di/jK14Ppal9hwfvtiZqzSRTtFrgAHHMPEpd5BLa6mlc8ql6ogSiLPQxf1noEYpJWvERll2dvL7g7xpyIG+zgFDgCYisygIGpSnJGQij7Pw7KZV9Vpf8qsXNi+mVW/NbpUIXB15mj3FIDCyocYmynmgPi/Ja1xJMWXuojuhyd2z/RA1RtscJirZ4vdbUr5xT5slzCgP9SQZpNj6lfv9i/243BFIKgZSm9ScMupPkEjWC4OmrogKG3UqVyn7h4zPVR0U55dg9YxHeFQtfG7rLKKWDmk001EDxZx8vPPorlukDaFleX9NpKbur7GaTDYp0tU7RCsuDo7zUslSxzDJTWr4HvXF6rxxGOvexamll8kWAlEQg9hjwsiItVRQFnhxD80kZDgNsFz+75hZ4sGFOXzeou8i3VOUzQ0MLrnF7Ky2nyBeu5ItXSsmv+4lllQ262be467WCH6eY3mUQ0YrllZWilsguCdPUE0qbuuP13pqNNJ/gPtLd9D8DsUcgdrQgKJZAKiAEKt5ZMGhJJPzla88xUbVz6yIO3cRWcm0rb/1As5dZd6L4/Y3GilSmPPO1A65UlHCDLBmEciFSXvOaL7quGaLbm8TUOr467yz7Wwb+ZyC2WNRtVvOJmwA4CBAl8bnNSpXaNvzPu64TtrXKC3dZlgms0dVoVIGruqN0M6R7tXwVGpuNxvBcLwV3rWIVeIWWlmtpmWKpPkJ0WYsVMOaK4h6SBUQ6CXRH62UW8zZf4NTX6d/9PqIrArFGICUo+Ch7FLnFFl1hTYp498I56GQP914L8sp/GKxTaWxdN8uBln5FBpte0B2mq5bu/aWbskdlIx+hYBHYCMW1EFnhCi1WaJHQQgFhvuJq4yzhjmDR6fkLV9JJMoylFxpcZEXxbsUt/xUQK0xZFghBhkIgrLBmFI9MV1edED8oz9wA8FEeYwaevTxr2/cuNbdo/6L3dLwxGEOkgPAbtGUNF68FKgIbptC8T2iuCL58uXe2AsR04bypwh0ThCNHSd9LzQYxlcVQ6z3Nmv3DC10VEYgFOqQogiiOMqctAjGPePfcJSTZl/2PPOiXjpr82qRU+Z7lm5bsV3KgzcASs80Gma0x6m+02Xig0V7jgcZHDPsbnjaZVOCK0fT8qcYhBTWarpFR8F8oCDUNFZg/1WgyKiB/qqG/SarhWMNUw9GoUahhKG/UQFQ/w1SbPvbhHj2amv0jIMWWvVMVRhBFUGar1GAWmZFRbtbFIKe+UQXY//CDILVuXatgzd41zd16ONrbdLMp6zLS3aVkgFPlktMq/2tZByjk51TZerg112At9bWubNHb1tl12D/4r8gdZ6Z0KRL5TlVgpRoKrVBBoWWqzNLBZ1c45cZfuvn2YKwcAjGNfKsyWa6CApHp72zn3Izw9PIq8C0yuQikQMRblcEylbr47Ltx5f3Wl/gWlVx8lEEgJuFvMiznPTpbp9doq28RyeVH+WlnOlvPvLHLrUewfR7+MfWxQJv+fwHEbWis/Xc+Gxzy+I+p7+LiUuSbfb49vj3+Lz/+HwurOiiTcdteAAAAAElFTkSuQmCC;" vertex="1" parent="1">
          <mxGeometry x="100" y="660" width="100" height="100" as="geometry" />
        </mxCell>
        <mxCell id="bap-exABjrLOmZxqaHPS-5" value="" style="shape=image;verticalLabelPosition=bottom;labelBackgroundColor=default;verticalAlign=top;aspect=fixed;imageAspect=0;image=data:image/svg+xml,PHN2ZyB4bWxuczp4bGluaz0iaHR0cDovL3d3dy53My5vcmcvMTk5OS94bGluayIgeG1sbnM9Imh0dHA6Ly93d3cudzMub3JnLzIwMDAvc3ZnIiB4bWw6c3BhY2U9InByZXNlcnZlIiBzdHlsZT0iZW5hYmxlLWJhY2tncm91bmQ6bmV3IDAgMCAxODAgNDY7IiB2aWV3Qm94PSIwIDAgMTgwIDQ2IiB5PSIwcHgiIHg9IjBweCIgaWQ9IuWbvuWxgl8xIiB2ZXJzaW9uPSIxLjEiPiYjeGE7PHN0eWxlIHR5cGU9InRleHQvY3NzIj4mI3hhOwkuc3Qwe2ZpbGw6Izg1Q0RGMDt9JiN4YTsJLnN0MXtmaWxsOiMwMDk3RTA7fSYjeGE7CS5zdDJ7ZmlsbDojRkZGRkZGO30mI3hhOzwvc3R5bGU+JiN4YTs8Zz4mI3hhOwk8cGF0aCBkPSJNMjkuOSwyNS42SDE0LjVjLTIuMSwwLTMuOCwxLjgtMy44LDMuOWMwLDAuOCwwLjIsMS42LDAuNywyLjJjMC4zLTAuMSwwLjYtMC4yLDAuOS0wLjNsMCwwbDAsMCYjMTA7JiM5OyYjOTtjMS0wLjQsMi4xLTEuMiwyLjgtMS44YzAuMi0wLjEsMC4zLTAuMiwwLjQtMC4zYzAuMS0wLjEsMC4yLTAuMiwwLjQtMC4zYzAuNi0wLjUsMS40LTEuMSwyLjYtMS4zYzAuMiwwLDAuNCwwLDAuNywwJiMxMDsmIzk7JiM5O2MxLDAsMS45LDAuMywyLjUsMC45YzAuMi0wLjEsMC40LTAuMiwwLjUtMC4zYzAuMy0wLjEsMC41LTAuMywwLjctMC40czAuNS0wLjIsMC44LTAuMmMwLjYsMCwxLjIsMC4zLDEuNSwwLjkmIzEwOyYjOTsmIzk7YzAuMiwwLjQsMC40LDEuMS0wLjIsMi4yYy0wLjEsMC4yLTAuMywwLjQtMC40LDAuN2MtMC4zLDAuNi0wLjcsMS4yLTEuMywyaDYuNmMyLjEsMCwzLjgtMS44LDMuOC0zLjlDMzMuNywyNy40LDMyLDI1LjYsMjkuOSwyNS42JiMxMDsmIzk7JiM5O3oiIGNsYXNzPSJzdDAiLz4mI3hhOwk8cGF0aCBkPSJNNS43LDIwLjNoMWMwLjYsMCwxLTAuNCwxLTFzLTAuNC0xLTEtMWgtMWMtMi4xLDAtMy43LTEuNy0zLjctMy45YzAtMi4xLDEuNi0zLjgsMy42LTMuOXYyLjFsMi44LTIuOWwtMi44LTMmIzEwOyYjOTsmIzk7djEuN2MtMywwLjItNS42LDIuOC01LjYsNkMwLDE3LjcsMi41LDIwLjMsNS43LDIwLjN6IiBjbGFzcz0ic3QxIi8+JiN4YTsJPHBhdGggZD0iTTM4LjQsMTguNmgtMWMtMC42LDAtMSwwLjQtMSwxczAuNCwxLDEsMWgxYzIuMSwwLDMuNywxLjcsMy43LDMuOWMwLDIuMS0xLjYsMy44LTMuNiwzLjl2LTIuMUwzNS43LDI5bDIuOCwzJiMxMDsmIzk7JiM5O3YtMS43YzMtMC4xLDUuNS0yLjYsNS41LTUuOUM0NC4xLDIxLjEsNDEuNiwxOC42LDM4LjQsMTguNnoiIGNsYXNzPSJzdDEiLz4mI3hhOwk8cGF0aCBkPSJNMjkuOSwxNS4zSDE0LjVjLTIuMSwwLTMuOCwxLjgtMy44LDMuOXMxLjcsMy45LDMuOCwzLjloMTUuNGMyLjEsMCwzLjgtMS44LDMuOC0zLjlTMzIsMTUuMywyOS45LDE1LjN6IiBjbGFzcz0ic3QwIi8+JiN4YTsJPHBhdGggZD0iTTI5LjksNS4xSDE0LjVjLTIuMSwwLTMuOCwxLjgtMy44LDMuOWwwLDBjMCwyLjIsMS43LDMuOSwzLjgsMy45aDE1LjRjMi4xLDAsMy44LTEuOCwzLjgtMy45bDAsMCYjMTA7JiM5OyYjOTtDMzMuNyw2LjgsMzIsNS4xLDI5LjksNS4xeiIgY2xhc3M9InN0MCIvPiYjeGE7CTxwYXRoIGQ9Ik0xOS41LDM5YzAuMiwxLjMtMC40LDEtMC45LDAuNmMtMC4zLTAuMi0xLjItMC43LTEuNy0xYzAuOC0wLjQsMS41LTAuOSwyLTEuM0MxOS4yLDM3LjgsMTkuNCwzOC40LDE5LjUsMzl6JiMxMDsmIzk7JiM5OyBNMTguNCwzMWMtMC4xLDAtMC4yLDAuMS0wLjIsMC4yczAuMSwwLjIsMC4yLDAuMnMwLjItMC4xLDAuMi0wLjJTMTguNSwzMSwxOC40LDMxeiBNMjQuMiwzMC4zYy0wLjgsMS4zLTEuOCwzLjMtNC42LDUuOSYjMTA7JiM5OyYjOTtjLTAuNiwwLjYtMS45LDEuNS0zLjIsMi4xYy0wLjQsMC4yLTEsMC40LTEuNiwwLjZjMC40LTAuNiwwLjYtMS4yLDAuNy0xLjhoLTAuM2MtMC43LDIuMy0yLjQsNC4zLTQuNSw1Yy0xLjMsMC40LTEtMC4zLTAuOC0wLjkmIzEwOyYjOTsmIzk7YzAuMi0wLjQsMC43LTIuNCwwLjktMy40bC0wLjQtMC4xYzAsMCwwLDAuMi0wLjEsMC40cy0wLjEsMC41LTAuMiwwLjhjLTEuMi0wLjQtMi40LTEtMy4zLTIuMWMtMS4zLTEuNi0xLjktMy4xLTIuMi01LjkmIzEwOyYjOTsmIzk7Yy0wLjEtMC43LTAuOC0xLjQtMS42LTIuM2MtMS0xLjEtMS0yLjctMC40LTIuOWMwLjQtMC4xLDIuNSwwLjksMy4yLDEuNGMwLjgtMC42LDItMS42LDIuNC0xLjNDOC41LDI2LDguNiwyNyw3LjksMjguNSYjMTA7JiM5OyYjOTtjLTEuNSwzLjEsMC42LDQsMS4xLDQuMWMwLjksMC4yLDIuMywwLjMsMy43LTAuM2MxLjMtMC41LDIuOS0xLjgsMy40LTIuMmMwLjctMC41LDEuNC0xLjIsMi41LTEuNGMxLjMtMC4yLDIuMywwLjIsMi44LDEuMSYjMTA7JiM5OyYjOTtjMC42LTAuMiwxLjQtMC44LDItMUMyMy45LDI4LjUsMjUsMjguOSwyNC4yLDMwLjN6IE0xOC44LDMxLjRjMC0wLjMtMC4yLTAuNi0wLjUtMC42cy0wLjUsMC4zLTAuNSwwLjZTMTgsMzIsMTguMywzMiYjMTA7JiM5OyYjOTtDMTguNiwzMS45LDE4LjgsMzEuNywxOC44LDMxLjR6IiBjbGFzcz0ic3QxIi8+JiN4YTsJPGc+JiN4YTsJCTxwYXRoIGQ9Ik00OSwxNy42aDQuOGMxLjYsMCwyLjksMC42LDMuOCwxLjhjMC44LDEuMSwxLjIsMi41LDEuMiw0LjJjMCwxLjMtMC4yLDIuNS0wLjcsMy42Yy0wLjgsMS45LTIuMywyLjgtNC4zLDIuOCYjMTA7JiM5OyYjOTsmIzk7SDQ5VjE3LjZ6IE01My41LDI4LjZjMC41LDAsMS0wLjEsMS4zLTAuMmMwLjYtMC4yLDEuMS0wLjYsMS41LTEuM2MwLjMtMC41LDAuNS0xLjEsMC43LTEuOWMwLjEtMC41LDAuMS0wLjksMC4xLTEuMyYjMTA7JiM5OyYjOTsmIzk7YzAtMS41LTAuMy0yLjctMC45LTMuNmMtMC42LTAuOC0xLjUtMS4zLTIuOC0xLjNoLTIuOHY5LjVMNTMuNSwyOC42TDUzLjUsMjguNnoiIGNsYXNzPSJzdDIiLz4mI3hhOwkJPHBhdGggZD0iTTY3LjMsMjEuOWMwLjgsMC44LDEuMiwxLjksMS4yLDMuNHMtMC4zLDIuNy0xLDMuNmMtMC43LDEtMS43LDEuNC0zLjIsMS40Yy0xLjIsMC0yLjItMC40LTIuOS0xLjMmIzEwOyYjOTsmIzk7JiM5O2MtMC43LTAuOC0xLjEtMi0xLjEtMy40YzAtMS41LDAuNC0yLjcsMS4xLTMuNmMwLjctMC45LDEuNy0xLjQsMy0xLjRDNjUuNSwyMC43LDY2LjUsMjEuMSw2Ny4zLDIxLjl6IE02Ni4zLDI3LjkmIzEwOyYjOTsmIzk7JiM5O2MwLjQtMC44LDAuNS0xLjYsMC41LTIuNWMwLTAuOC0wLjEtMS41LTAuNC0yLjFjLTAuNC0wLjgtMS4xLTEuMi0yLjEtMS4yYy0wLjksMC0xLjUsMC40LTEuOSwxLjFzLTAuNiwxLjYtMC42LDIuNiYjMTA7JiM5OyYjOTsmIzk7czAuMiwxLjgsMC42LDIuNGMwLjQsMC42LDEsMSwxLjksMUM2NS4zLDI5LjEsNjYsMjguNyw2Ni4zLDI3Ljl6IiBjbGFzcz0ic3QyIi8+JiN4YTsJCTxwYXRoIGQ9Ik03MC4zLDE3LjZoMS41VjMwaC0xLjVWMTcuNnoiIGNsYXNzPSJzdDIiLz4mI3hhOwkJPHBhdGggZD0iTTczLjgsMjFoMS40djEuMmMwLjMtMC40LDAuNi0wLjcsMS0xYzAuNS0wLjMsMS4xLTAuNSwxLjgtMC41YzEsMCwxLjgsMC40LDIuNSwxLjJjMC43LDAuOCwxLDEuOSwxLDMuNCYjMTA7JiM5OyYjOTsmIzk7YzAsMi0wLjUsMy40LTEuNSw0LjJjLTAuNiwwLjUtMS40LDAuOC0yLjIsMC44Yy0wLjcsMC0xLjItMC4xLTEuNy0wLjRjLTAuMy0wLjItMC42LTAuNS0wLjktMC45djQuNmgtMS41TDczLjgsMjFMNzMuOCwyMXomIzEwOyYjOTsmIzk7JiM5OyBNNzkuNCwyOC4xYzAuNS0wLjYsMC43LTEuNSwwLjctMi43YzAtMC43LTAuMS0xLjMtMC4zLTEuOWMtMC40LTEtMS4xLTEuNS0yLjEtMS41cy0xLjcsMC41LTIuMSwxLjZjLTAuMiwwLjYtMC4zLDEuMy0wLjMsMi4xJiMxMDsmIzk7JiM5OyYjOTtjMCwwLjcsMC4xLDEuMywwLjMsMS44YzAuNCwwLjksMS4xLDEuNCwyLjEsMS40Qzc4LjQsMjksNzguOSwyOC43LDc5LjQsMjguMXoiIGNsYXNzPSJzdDIiLz4mI3hhOwkJPHBhdGggZD0iTTgzLjMsMTcuNmgxLjV2NC42YzAuMy0wLjUsMC43LTAuOCwwLjktMWMwLjUtMC4zLDEuMS0wLjUsMS44LTAuNWMxLjMsMCwyLjEsMC41LDIuNiwxLjQmIzEwOyYjOTsmIzk7JiM5O2MwLjIsMC41LDAuNCwxLjIsMC40LDIuMVYzMEg4OXYtNS43YzAtMC43LTAuMS0xLjItMC4yLTEuNWMtMC4zLTAuNS0wLjgtMC43LTEuNS0wLjdjLTAuNiwwLTEuMiwwLjItMS43LDAuNyYjMTA7JiM5OyYjOTsmIzk7Yy0wLjUsMC40LTAuNywxLjMtMC43LDIuNVYzMGgtMS41VjE3LjZIODMuM3oiIGNsYXNzPSJzdDIiLz4mI3hhOwkJPHBhdGggZD0iTTkyLjYsMTcuNmgxLjV2MS43aC0xLjVWMTcuNnogTTkyLjYsMjFoMS41djloLTEuNVYyMXoiIGNsYXNzPSJzdDIiLz4mI3hhOwkJPHBhdGggZD0iTTk2LjQsMjFoMS40djEuM2MwLjQtMC41LDAuOS0wLjksMS4zLTEuMWMwLjUtMC4yLDEtMC4zLDEuNS0wLjNjMS4yLDAsMi4xLDAuNCwyLjUsMS4zJiMxMDsmIzk7JiM5OyYjOTtjMC4yLDAuNSwwLjQsMS4yLDAuNCwyLjFWMzBIMTAydi01LjdjMC0wLjYtMC4xLTEtMC4yLTEuM2MtMC4zLTAuNi0wLjctMC44LTEuNC0wLjhjLTAuMywwLTAuNiwwLTAuOSwwLjEmIzEwOyYjOTsmIzk7JiM5O2MtMC40LDAuMS0wLjgsMC40LTEuMSwwLjdjLTAuMiwwLjMtMC40LDAuNi0wLjUsMC45cy0wLjEsMC44LTAuMSwxLjRWMzBoLTEuNUw5Ni40LDIxTDk2LjQsMjF6IiBjbGFzcz0ic3QyIi8+JiN4YTsJCTxwYXRoIGQ9Ik0xMDcsMjZjMCwwLjcsMC4yLDEuMywwLjUsMS43YzAuNSwwLjgsMS40LDEuMiwyLjgsMS4yYzAuNiwwLDEuMS0wLjEsMS42LTAuM2MwLjktMC4zLDEuNC0xLDEuNC0xLjkmIzEwOyYjOTsmIzk7JiM5O2MwLTAuNy0wLjItMS4yLTAuNi0xLjRjLTAuNC0wLjMtMS0wLjUtMS45LTAuN2wtMS42LTAuNGMtMS0wLjItMS44LTAuNS0yLjItMC44Yy0wLjctMC41LTEuMS0xLjMtMS4xLTIuM2MwLTEuMSwwLjQtMiwxLjEtMi43JiMxMDsmIzk7JiM5OyYjOTtzMS44LTEuMSwzLjEtMS4xYzEuMiwwLDIuMywwLjMsMy4xLDAuOWMwLjksMC42LDEuMywxLjYsMS4zLDNIMTEzYy0wLjEtMC43LTAuMi0xLjItMC41LTEuNWMtMC41LTAuNi0xLjMtMS0yLjQtMSYjMTA7JiM5OyYjOTsmIzk7Yy0wLjksMC0xLjYsMC4yLTIsMC42cy0wLjYsMC45LTAuNiwxLjVzMC4yLDEuMSwwLjcsMS4zYzAuMywwLjIsMSwwLjQsMi4xLDAuN2wxLjYsMC40YzAuOCwwLjIsMS40LDAuNSwxLjgsMC44JiMxMDsmIzk7JiM5OyYjOTtjMC43LDAuNiwxLjEsMS40LDEuMSwyLjVjMCwxLjQtMC41LDIuNC0xLjQsMi45Yy0wLjksMC42LTIsMC45LTMuMywwLjljLTEuNSwwLTIuNi0wLjQtMy40LTEuMmMtMC44LTAuOC0xLjItMS44LTEuMi0zLjJoMS41VjI2eiIgY2xhc3M9InN0MiIvPiYjeGE7CQk8cGF0aCBkPSJNMTIyLjcsMjEuNWMwLjYsMC41LDEsMS4zLDEuMSwyLjZoLTEuNGMtMC4xLTAuNi0wLjMtMS0wLjYtMS40Yy0wLjMtMC40LTAuOC0wLjYtMS41LTAuNiYjMTA7JiM5OyYjOTsmIzk7Yy0wLjksMC0xLjYsMC41LTIsMS40Yy0wLjMsMC42LTAuNCwxLjQtMC40LDIuM3MwLjIsMS43LDAuNiwyLjNjMC40LDAuNiwxLDAuOSwxLjgsMC45YzAuNiwwLDEuMS0wLjIsMS41LTAuNnMwLjYtMC45LDAuNy0xLjYmIzEwOyYjOTsmIzk7JiM5O2gxLjRjLTAuMiwxLjItMC42LDIuMS0xLjIsMi42Yy0wLjcsMC42LTEuNSwwLjgtMi41LDAuOGMtMS4xLDAtMi4xLTAuNC0yLjctMS4zYy0wLjctMC45LTEtMS45LTEtMy4yYzAtMS42LDAuNC0yLjgsMS4xLTMuNyYjMTA7JiM5OyYjOTsmIzk7YzAuNy0wLjksMS43LTEuMywyLjktMS4zQzEyMS4zLDIwLjcsMTIyLjEsMjEsMTIyLjcsMjEuNXoiIGNsYXNzPSJzdDIiLz4mI3hhOwkJPHBhdGggZD0iTTEyNS4zLDE3LjZoMS41djQuNmMwLjMtMC41LDAuNy0wLjgsMC45LTFjMC41LTAuMywxLjEtMC41LDEuOC0wLjVjMS4zLDAsMi4xLDAuNSwyLjYsMS40JiMxMDsmIzk7JiM5OyYjOTtjMC4yLDAuNSwwLjQsMS4yLDAuNCwyLjFWMzBIMTMxdi01LjdjMC0wLjctMC4xLTEuMi0wLjItMS41Yy0wLjMtMC41LTAuOC0wLjctMS41LTAuN2MtMC42LDAtMS4yLDAuMi0xLjcsMC43JiMxMDsmIzk7JiM5OyYjOTtjLTAuNSwwLjQtMC43LDEuMy0wLjcsMi41VjMwaC0xLjVWMTcuNkgxMjUuM3oiIGNsYXNzPSJzdDIiLz4mI3hhOwkJPHBhdGggZD0iTTE0MCwyMS4yYzAuNiwwLjMsMSwwLjcsMS4zLDEuMnMwLjUsMSwwLjYsMS42YzAuMSwwLjQsMC4xLDEuMSwwLjEsMmgtNi40YzAsMC45LDAuMiwxLjcsMC42LDIuMiYjMTA7JiM5OyYjOTsmIzk7YzAuNCwwLjYsMSwwLjgsMS44LDAuOHMxLjQtMC4zLDEuOC0wLjhjMC4zLTAuMywwLjQtMC43LDAuNS0xLjFoMS41YzAsMC4zLTAuMiwwLjctMC40LDEuMXMtMC41LDAuNy0wLjcsMSYjMTA7JiM5OyYjOTsmIzk7Yy0wLjQsMC41LTEsMC44LTEuNywwLjljLTAuNCwwLjEtMC44LDAuMS0xLjIsMC4xYy0xLjEsMC0yLTAuNC0yLjgtMS4yYy0wLjgtMC44LTEuMS0yLTEuMS0zLjRjMC0xLjUsMC40LTIuNiwxLjEtMy41JiMxMDsmIzk7JiM5OyYjOTtjMC44LTAuOSwxLjgtMS40LDMtMS40QzEzOC45LDIwLjgsMTM5LjUsMjAuOSwxNDAsMjEuMnogTTE0MC42LDI0LjhjLTAuMS0wLjctMC4yLTEuMi0wLjQtMS42Yy0wLjQtMC43LTEuMS0xLjEtMi0xLjEmIzEwOyYjOTsmIzk7JiM5O2MtMC43LDAtMS4yLDAuMy0xLjcsMC44cy0wLjcsMS4xLTAuNywxLjlDMTM1LjgsMjQuOCwxNDAuNiwyNC44LDE0MC42LDI0Ljh6IiBjbGFzcz0ic3QyIi8+JiN4YTsJCTxwYXRoIGQ9Ik0xNDguOCwyMS4zYzAuMywwLjIsMC42LDAuNSwwLjksMC45di00LjZoMS40VjMwaC0xLjN2LTEuM2MtMC4zLDAuNi0wLjcsMS0xLjIsMS4ycy0xLDAuNC0xLjYsMC40JiMxMDsmIzk7JiM5OyYjOTtjLTEsMC0xLjgtMC40LTIuNS0xLjNjLTAuNy0wLjgtMS4xLTItMS4xLTMuNGMwLTEuMywwLjMtMi41LDEtMy40YzAuNy0xLDEuNi0xLjQsMi44LTEuNEMxNDcuOCwyMC44LDE0OC4zLDIxLDE0OC44LDIxLjN6JiMxMDsmIzk7JiM5OyYjOTsgTTE0NS41LDI4LjFjMC40LDAuNywxLDEsMS45LDFjMC43LDAsMS4yLTAuMywxLjctMC45YzAuNC0wLjYsMC43LTEuNSwwLjctMi42cy0wLjItMi0wLjctMi41cy0xLTAuOC0xLjctMC44cy0xLjMsMC4zLTEuOCwwLjkmIzEwOyYjOTsmIzk7JiM5O3MtMC43LDEuNC0wLjcsMi42QzE0NC45LDI2LjYsMTQ1LjEsMjcuNCwxNDUuNSwyOC4xeiIgY2xhc3M9InN0MiIvPiYjeGE7CQk8cGF0aCBkPSJNMTU0LjgsMjF2NmMwLDAuNSwwLjEsMC44LDAuMiwxLjFjMC4zLDAuNSwwLjcsMC44LDEuNCwwLjhjMSwwLDEuNy0wLjUsMi0xLjRjMC4yLTAuNSwwLjMtMS4yLDAuMy0yLjFWMjEmIzEwOyYjOTsmIzk7JiM5O2gxLjV2OWgtMS40di0xLjNjLTAuMiwwLjMtMC40LDAuNi0wLjcsMC45Yy0wLjYsMC41LTEuMiwwLjctMiwwLjdjLTEuMiwwLTIuMS0wLjQtMi41LTEuM2MtMC4yLTAuNS0wLjQtMS4xLTAuNC0xLjhWMjFIMTU0Ljh6IiBjbGFzcz0ic3QyIi8+JiN4YTsJCTxwYXRoIGQ9Ik0xNjIuNywxNy42aDEuNVYzMGgtMS41VjE3LjZ6IiBjbGFzcz0ic3QyIi8+JiN4YTsJCTxwYXRoIGQ9Ik0xNzEuOCwyMS4yYzAuNiwwLjMsMSwwLjcsMS4zLDEuMnMwLjUsMSwwLjYsMS42YzAuMSwwLjQsMC4xLDEuMSwwLjEsMmgtNi40YzAsMC45LDAuMiwxLjcsMC42LDIuMiYjMTA7JiM5OyYjOTsmIzk7YzAuNCwwLjYsMSwwLjgsMS44LDAuOHMxLjQtMC4zLDEuOC0wLjhjMC4zLTAuMywwLjQtMC43LDAuNS0xLjFoMS41YzAsMC4zLTAuMiwwLjctMC40LDEuMXMtMC41LDAuNy0wLjcsMSYjMTA7JiM5OyYjOTsmIzk7Yy0wLjQsMC41LTEsMC44LTEuNywwLjljLTAuNCwwLjEtMC44LDAuMS0xLjIsMC4xYy0xLjEsMC0yLTAuNC0yLjgtMS4yYy0wLjgtMC44LTEuMS0yLTEuMS0zLjRjMC0xLjUsMC40LTIuNiwxLjEtMy41JiMxMDsmIzk7JiM5OyYjOTtjMC44LTAuOSwxLjgtMS40LDMtMS40QzE3MC42LDIwLjgsMTcxLjIsMjAuOSwxNzEuOCwyMS4yeiBNMTcyLjMsMjQuOGMtMC4xLTAuNy0wLjItMS4yLTAuNC0xLjZjLTAuNC0wLjctMS4xLTEuMS0yLTEuMSYjMTA7JiM5OyYjOTsmIzk7Yy0wLjcsMC0xLjIsMC4zLTEuNywwLjhzLTAuNywxLjEtMC43LDEuOUMxNjcuNSwyNC44LDE3Mi4zLDI0LjgsMTcyLjMsMjQuOHoiIGNsYXNzPSJzdDIiLz4mI3hhOwkJPHBhdGggZD0iTTE3NS43LDIxaDEuNHYxLjZjMC4xLTAuMywwLjQtMC43LDAuOC0xLjFjMC40LTAuNCwxLTAuNywxLjUtMC43aDAuMWMwLjEsMCwwLjIsMCwwLjMsMHYxLjYmIzEwOyYjOTsmIzk7JiM5O2MtMC4xLDAtMC4yLDAtMC4yLDBjLTAuMSwwLTAuMiwwLTAuMiwwYy0wLjcsMC0xLjMsMC4yLTEuNywwLjdzLTAuNiwxLjEtMC42LDEuN1YzMGgtMS41TDE3NS43LDIxTDE3NS43LDIxeiIgY2xhc3M9InN0MiIvPiYjeGE7CTwvZz4mI3hhOzwvZz4mI3hhOzwvc3ZnPg==;" vertex="1" parent="1">
          <mxGeometry x="520" y="660" width="442.17" height="113" as="geometry" />
        </mxCell>
        <mxCell id="bap-exABjrLOmZxqaHPS-6" value="Airflow" style="text;html=1;align=center;verticalAlign=middle;resizable=0;points=[];autosize=1;strokeColor=none;fillColor=none;fontSize=14;" vertex="1" parent="1">
          <mxGeometry x="105" y="768" width="70" height="30" as="geometry" />
        </mxCell>
        <mxCell id="bap-exABjrLOmZxqaHPS-7" value="Dolphin Schduler" style="text;html=1;align=center;verticalAlign=middle;resizable=0;points=[];autosize=1;strokeColor=none;fillColor=none;fontSize=14;" vertex="1" parent="1">
          <mxGeometry x="510" y="768" width="130" height="30" as="geometry" />
        </mxCell>
      </root>
    </mxGraphModel>
  </diagram>
</mxfile>
